<?xml version="1.0" standalone="no"?>
<!DOCTYPE svg PUBLIC "-//W3C//DTD SVG 1.1//EN" "http://www.w3.org/Graphics/SVG/1.1/DTD/svg11.dtd" >
<svg xmlns="http://www.w3.org/2000/svg" xmlns:xlink="http://www.w3.org/1999/xlink" version="1.1">
<metadata></metadata>
<defs>
<font id="suisse_intlsemibold" horiz-adv-x="1388" >
<font-face units-per-em="2048" ascent="1638" descent="-410" />
<missing-glyph horiz-adv-x="462" />
<glyph horiz-adv-x="0" />
<glyph horiz-adv-x="682" />
<glyph unicode=" "  horiz-adv-x="462" />
<glyph unicode="&#x09;" horiz-adv-x="462" />
<glyph unicode="&#xa0;" horiz-adv-x="462" />
<glyph unicode="!" horiz-adv-x="512" d="M104 0v307h304v-307h-304zM115 1104v381h282v-381l-45 -666h-186z" />
<glyph unicode="&#x22;" horiz-adv-x="698" d="M29 1485h297l-41 -531h-217zM373 1485h297l-41 -531h-217z" />
<glyph unicode="#" horiz-adv-x="1484" d="M18 395l27 217h285l43 310h-279l23 219h286l48 344h254l-48 -344h273l47 344h254l-47 -344h282l-26 -219h-287l-43 -310h281l-23 -217h-289l-53 -395h-254l53 395h-272l-53 -395h-254l53 395h-281zM584 612h272l43 310h-272z" />
<glyph unicode="$" horiz-adv-x="1277" d="M70 494h276q0 -135 64 -211.5t163 -89.5v458l-77 19q-404 98 -404 424q0 100 41.5 179.5t111.5 127.5t152.5 75t175.5 33v150h117v-152q223 -20 356.5 -154.5t133.5 -338.5h-275q0 120 -60 188.5t-155 87.5v-411l17 -5q55 -14 97.5 -26.5t96 -33.5t93.5 -44.5t81 -58 t66.5 -74.5t42 -94t16.5 -117q0 -104 -41.5 -188.5t-113 -139t-162 -86t-193.5 -37.5v-172h-117v174q-226 17 -366.5 159.5t-136.5 357.5zM356 1108q0 -152 201 -199l16 -4v389q-91 -5 -154 -52t-63 -134zM690 190q106 5 176 59.5t70 158.5q0 86 -60.5 134t-185.5 81v-433z " />
<glyph unicode="%" horiz-adv-x="2185" d="M59 1069q0 207 92 318.5t273 111.5q178 0 269 -111.5t91 -318.5q0 -210 -91 -322t-269 -112q-181 0 -273 112t-92 322zM262 1069q0 -148 43.5 -219.5t118.5 -71.5q73 0 116.5 72t43.5 219q0 145 -43.5 215t-116.5 70q-76 0 -119 -69.5t-43 -215.5zM434 0l1026 1485h291 l-1026 -1485h-291zM1401 420q0 207 92 318.5t272 111.5q178 0 269.5 -111.5t91.5 -318.5q0 -209 -91.5 -321.5t-269.5 -112.5q-181 0 -272.5 112t-91.5 322zM1604 420q0 -148 43 -219.5t118 -71.5q73 0 116.5 72t43.5 219q0 145 -43.5 215t-116.5 70q-76 0 -118.5 -69.5 t-42.5 -215.5z" />
<glyph unicode="&#x26;" horiz-adv-x="1417" d="M20 416q0 81 29 151.5t80 122.5t111 90t131 64q-74 93 -113 174.5t-39 163.5q0 151 119 240t307 89q76 0 145 -18t129.5 -55t97 -103.5t36.5 -154.5q0 -122 -77.5 -224.5t-199.5 -158.5l197 -217q38 108 49 254h278q-26 -239 -147 -453l348 -381h-377l-143 160 q-200 -187 -463 -187q-219 0 -358.5 126t-139.5 317zM309 430q0 -106 70 -175t180 -69q152 0 272 140l-315 354q-207 -86 -207 -250zM508 1188q0 -97 131 -240l2 -2q53 27 86.5 67t45 77t11.5 77q0 66 -39 104t-100 38q-57 0 -97 -34t-40 -87z" />
<glyph unicode="'" horiz-adv-x="354" d="M29 1485h297l-41 -531h-217z" />
<glyph unicode="(" horiz-adv-x="546" d="M37 563q0 146 26.5 289.5t71 261.5t89 206.5t95.5 164.5h259q-113 -185 -181.5 -420t-68.5 -502q0 -268 68.5 -502t181.5 -419h-259q-51 75 -96 165t-89.5 207.5t-70.5 260.5t-26 288z" />
<glyph unicode=")" horiz-adv-x="546" d="M-37 -358q113 185 181.5 419t68.5 502q0 267 -68.5 502t-181.5 420h258q51 -77 95.5 -165t89.5 -206t71.5 -261.5t26.5 -289.5t-26 -288.5t-71 -260t-90 -206.5t-96 -166h-258z" />
<glyph unicode="*" horiz-adv-x="782" d="M29 1171l65 179l199 -78v213h190v-213l203 78l68 -179l-209 -71l125 -174l-148 -111l-133 178l-121 -178l-159 109l124 174z" />
<glyph unicode="+" d="M125 424v246h442v432h256v-432h441v-246h-441v-424h-256v424h-442z" />
<glyph unicode="," horiz-adv-x="526" d="M92 -348l152 348h-140v307h318v-330l-168 -325h-162z" />
<glyph unicode="-" horiz-adv-x="856" d="M88 424v246h678v-246h-678z" />
<glyph unicode="." horiz-adv-x="512" d="M104 0v307h304v-307h-304z" />
<glyph unicode="/" horiz-adv-x="813" d="M-10 0l573 1485h262l-573 -1485h-262z" />
<glyph unicode="0" horiz-adv-x="1357" d="M82 745q0 229 65.5 399t202 268.5t330.5 98.5q192 0 328 -98t202 -269t66 -399t-66 -400t-202 -272t-328 -100q-194 0 -330.5 100t-202 271.5t-65.5 400.5zM371 745q0 -271 78.5 -415t230.5 -144q151 0 229 143.5t78 415.5q0 271 -77.5 412t-229.5 141t-230.5 -141 t-78.5 -412z" />
<glyph unicode="1" horiz-adv-x="755" d="M0 1110v193q61 2 98.5 4.5t80 9.5t69.5 18.5t54.5 31.5t47.5 49t37 69h215v-1485h-283v1110h-319z" />
<glyph unicode="2" horiz-adv-x="1185" d="M47 0v229q118 95 194 157.5t166 140t145 132t112 118t87 114t49 104t19 103.5q0 98 -57.5 151.5t-161.5 53.5q-49 0 -92.5 -16t-80 -49t-58 -92.5t-21.5 -139.5h-274q-4 228 145.5 366.5t396.5 138.5q227 0 357.5 -103.5t130.5 -295.5q0 -392 -727 -874h762v-238h-1092z " />
<glyph unicode="3" horiz-adv-x="1257" d="M45 467h266q19 -122 95 -201.5t206 -79.5q119 0 199 64.5t80 167.5q0 124 -102 184t-271 60h-59v221h49q161 0 253.5 57t92.5 160q0 92 -69 145t-167 53q-127 0 -204 -71.5t-88 -190.5h-269q25 228 173.5 351.5t404.5 123.5q96 0 183.5 -23.5t160.5 -70t116.5 -125.5 t43.5 -180q0 -105 -55.5 -191t-145.5 -135q114 -48 177 -146t63 -214q0 -88 -30 -162.5t-82.5 -127.5t-125 -90t-157.5 -55t-179 -18q-124 0 -228 39t-173.5 106t-110.5 156.5t-47 192.5z" />
<glyph unicode="4" horiz-adv-x="1298" d="M16 356v222l738 907h276v-889h254v-240h-254v-356h-280v356h-734zM326 596h424v530z" />
<glyph unicode="5" horiz-adv-x="1275" d="M86 467h266q13 -124 86 -202.5t201 -78.5q119 0 193.5 81t74.5 220q0 145 -81 224.5t-193 79.5q-94 0 -161.5 -39t-92.5 -97l-258 13l98 817h916v-238h-684l-41 -317q110 82 295 82q97 0 184 -34.5t155.5 -98.5t109 -165t40.5 -225q0 -159 -76.5 -278t-202.5 -178.5 t-280 -59.5q-126 0 -229.5 41t-170 110.5t-105 157t-44.5 185.5z" />
<glyph unicode="6" horiz-adv-x="1286" d="M82 709q0 132 19.5 247.5t65 218.5t113.5 176.5t171 116.5t233 43q94 0 174 -24.5t135 -65t95.5 -94t61.5 -110t26 -115.5h-277q-10 91 -74.5 142.5t-158.5 51.5q-141 0 -221 -120.5t-80 -331.5q50 63 137.5 102t199.5 39q103 0 194.5 -34.5t160.5 -98t109 -160.5 t40 -215q0 -227 -154.5 -365.5t-398.5 -138.5q-145 0 -256 56t-179 156.5t-102 232.5t-34 291zM381 481q0 -133 76 -214t196 -81q117 0 192 81t75 214q0 129 -75 209t-192 80q-120 0 -196 -80t-76 -209z" />
<glyph unicode="7" horiz-adv-x="1044" d="M-6 1247v238h1091v-238q-152 -154 -255 -287.5t-181 -283.5t-118 -314.5t-50 -361.5h-311q8 186 60.5 365.5t140 336t194 290.5t236.5 255h-807z" />
<glyph unicode="8" horiz-adv-x="1312" d="M94 424q0 245 228 371q-89 52 -136 141.5t-47 191.5q0 168 142.5 275.5t373.5 107.5q233 0 376 -107.5t143 -273.5q0 -223 -181 -335q226 -131 226 -371q0 -140 -76 -244t-202.5 -155.5t-285.5 -51.5q-157 0 -283 51.5t-202 155.5t-76 244zM383 436q0 -111 74.5 -180.5 t197.5 -69.5q126 0 200.5 69t74.5 181q0 111 -74 177.5t-201 66.5q-124 0 -198 -66.5t-74 -177.5zM414 1096q0 -93 66 -153t175 -60t176.5 60t67.5 153q0 92 -66.5 147t-177.5 55q-110 0 -175.5 -55t-65.5 -147z" />
<glyph unicode="9" horiz-adv-x="1273" d="M68 1008q0 227 154.5 365t398.5 138q145 0 256 -56t179 -156t102 -232t34 -291q0 -132 -20 -247.5t-65 -219t-113.5 -177t-171.5 -116.5t-232 -43q-116 0 -210.5 37t-152 97.5t-90.5 131t-39 144.5h277q10 -90 74.5 -141.5t158.5 -51.5q141 0 221 120.5t80 330.5 q-50 -63 -138 -102t-202 -39q-102 0 -193 34.5t-159.5 98t-108.5 160.5t-40 215zM354 1006q0 -129 75 -209t192 -80t193.5 80t76.5 209q0 130 -76.5 210t-193.5 80q-119 0 -193 -78.5t-74 -211.5z" />
<glyph unicode=":" horiz-adv-x="512" d="M104 0v307h304v-307h-304zM104 795v307h304v-307h-304z" />
<glyph unicode=";" horiz-adv-x="526" d="M92 -348l152 348h-140v307h318v-330l-168 -325h-162zM104 795v307h304v-307h-304z" />
<glyph unicode="&#x3c;" d="M156 430v234l1056 450v-274l-745 -293l745 -293v-277z" />
<glyph unicode="=" d="M174 211v248h1040v-248h-1040zM174 643v246h1040v-246h-1040z" />
<glyph unicode="&#x3e;" d="M176 -23v277l748 293l-748 293v274l1057 -450v-234z" />
<glyph unicode="?" horiz-adv-x="1073" d="M10 1020q0 222 155.5 356.5t397.5 134.5q76 0 147.5 -14t135.5 -44t111.5 -73.5t75.5 -105.5t28 -137q0 -67 -22.5 -127.5t-60.5 -107t-79.5 -81t-89.5 -61.5q-58 -34 -87.5 -55t-57.5 -52.5t-38 -70t-10 -93.5v-63h-276v70q0 98 26.5 169t72 117t120.5 90 q110 65 163.5 120.5t53.5 129.5q0 76 -65.5 125t-151.5 49q-120 0 -193 -67.5t-77 -208.5h-279zM326 0v307h303v-307h-303z" />
<glyph unicode="@" horiz-adv-x="1689" d="M82 715q0 162 62 305t168.5 245t256 161t318.5 59q151 0 280 -40t229 -118t157 -205t57 -291q0 -121 -31.5 -221t-84 -164t-118.5 -98.5t-137 -34.5q-84 0 -141.5 49.5t-69.5 139.5q-99 -183 -311 -183q-130 0 -216.5 93t-86.5 274q0 90 29.5 175t82 152t133 107.5 t175.5 40.5q85 0 145 -41t90 -114q2 14 6.5 56t9.5 64h146l-60 -446q-8 -41 -8 -82q0 -137 94 -137q83 0 139 98t56 264q0 249 -155 383.5t-414 134.5q-186 0 -332 -82.5t-225.5 -226.5t-79.5 -323q0 -261 156 -423.5t409 -162.5q206 0 389 88l57 -137q-203 -101 -446 -101 q-213 0 -379.5 94t-258 263t-91.5 385zM592 684q0 -215 170 -215q117 0 184.5 98t67.5 240q0 97 -46 149t-132 52q-111 0 -177.5 -95t-66.5 -229z" />
<glyph unicode="A" horiz-adv-x="1402" d="M0 0l553 1485h295l555 -1485h-318l-104 301h-578l-104 -301h-299zM487 541h410l-205 585z" />
<glyph unicode="B" horiz-adv-x="1359" d="M133 0v1485h578q83 0 156.5 -10.5t145.5 -38t123.5 -70t83 -111.5t31.5 -157q0 -97 -52 -185t-116 -129q48 -23 84 -49.5t69.5 -66.5t51 -98t17.5 -132q0 -93 -30 -167.5t-82.5 -124.5t-125.5 -83.5t-155.5 -48t-176.5 -14.5h-602zM426 229h324q256 0 256 209 q0 213 -269 213h-311v-422zM426 872h303q106 0 163.5 50t57.5 147q0 87 -59 136.5t-162 49.5h-303v-383z" />
<glyph unicode="C" horiz-adv-x="1472" d="M82 750q0 352 189 556.5t513 204.5q259 0 428.5 -137t206.5 -370h-278q-73 274 -359 274q-174 0 -285.5 -139t-111.5 -389q0 -256 110 -399.5t277 -143.5q301 0 369 280h278q-30 -228 -205 -371t-438 -143q-328 0 -511 208.5t-183 568.5z" />
<glyph unicode="D" horiz-adv-x="1472" d="M133 0v1485h440q149 0 267.5 -20t225.5 -71.5t178.5 -134t113 -213t41.5 -303.5t-41.5 -303.5t-113 -213t-178.5 -134.5t-225.5 -72t-267.5 -20h-440zM426 229h135q63 0 114.5 5t108.5 19t100.5 37t84.5 62.5t68 92t43 128.5t16 170q0 93 -16 168t-43 127.5t-67.5 92 t-85 63t-101 37.5t-108.5 19t-114 5h-135v-1026z" />
<glyph unicode="E" horiz-adv-x="1263" d="M133 0v1485h1081v-238h-788v-368h745v-238h-745v-403h788v-238h-1081z" />
<glyph unicode="F" horiz-adv-x="1214" d="M133 0v1485h1081v-238h-788v-368h745v-238h-745v-641h-293z" />
<glyph unicode="G" horiz-adv-x="1568" d="M82 750q0 230 86 401.5t251 265.5t390 94q256 0 425.5 -133t207.5 -344h-279q-34 119 -130.5 181.5t-225.5 62.5q-193 0 -307.5 -135t-114.5 -393q0 -264 112 -403.5t308 -139.5q50 0 99.5 10t99 33.5t87.5 58.5t61.5 90.5t23.5 124.5v25h-371v239h641v-788h-232l-8 174 q-65 -95 -178.5 -148t-267.5 -53q-313 0 -495.5 210t-182.5 567z" />
<glyph unicode="H" horiz-adv-x="1517" d="M133 0v1485h293v-606h666v606h292v-1485h-292v641h-666v-641h-293z" />
<glyph unicode="I" horiz-adv-x="559" d="M133 0v1485h293v-1485h-293z" />
<glyph unicode="J" horiz-adv-x="1177" d="M23 485h292q4 -146 60 -209t160 -63q217 0 217 272v1000h292v-1000q0 -237 -133.5 -374.5t-375.5 -137.5q-239 0 -373 140t-139 372z" />
<glyph unicode="K" horiz-adv-x="1394" d="M133 0v1485h293v-680l606 680h342l-547 -598l588 -887h-346l-438 670l-205 -224v-446h-293z" />
<glyph unicode="L" horiz-adv-x="1148" d="M133 0v1485h293v-1247h723v-238h-1016z" />
<glyph unicode="M" horiz-adv-x="1832" d="M133 0v1485h426l361 -1157l350 1157h430v-1485h-273v1116l-364 -1116h-291l-366 1116v-1116h-273z" />
<glyph unicode="N" horiz-adv-x="1517" d="M133 0v1485h381l594 -1133v1133h276v-1485h-380l-594 1133v-1133h-277z" />
<glyph unicode="O" horiz-adv-x="1601" d="M74 743q0 347 198.5 557.5t528.5 210.5t528.5 -210.5t198.5 -557.5t-198.5 -558.5t-528.5 -211.5t-528.5 211.5t-198.5 558.5zM377 743q0 -128 33.5 -231t92 -169t135 -101t163.5 -35t163.5 35t135 101t92 169t33.5 231q0 127 -33.5 230t-92 169t-135 101t-163.5 35 t-163.5 -35t-135 -101t-92 -169t-33.5 -230z" />
<glyph unicode="P" horiz-adv-x="1308" d="M133 0v1485h508q74 0 132 -3.5t129 -15.5t124 -32.5t106 -57.5t86.5 -88t54.5 -126t21 -169q0 -92 -23.5 -166t-68 -125t-101.5 -86.5t-132 -55.5t-152 -29t-168 -9h-223v-522h-293zM426 750h242q73 0 127.5 10.5t101.5 36t71.5 74.5t24.5 120q0 51 -11.5 91.5 t-29.5 67.5t-46 47t-56 31t-65.5 17.5t-68 8t-69.5 1.5h-221v-505z" />
<glyph unicode="Q" horiz-adv-x="1599" d="M74 743q0 347 198.5 557.5t528.5 210.5t528.5 -210.5t198.5 -557.5q0 -414 -266 -620l176 -232l-181 -135l-198 256q-125 -39 -258 -39q-330 0 -528.5 211.5t-198.5 558.5zM377 743q0 -128 33.5 -231t92 -169t135 -101t163.5 -35q53 0 102 12l-112 148l182 137l123 -164 q129 148 129 403q0 127 -33.5 230t-92 169t-135 101t-163.5 35t-163.5 -35t-135 -101t-92 -169t-33.5 -230z" />
<glyph unicode="R" horiz-adv-x="1386" d="M133 0v1485h488q244 0 392.5 -48.5t215.5 -146.5t67 -256q0 -276 -268 -391l330 -643h-326l-295 582h-69h-242v-582h-293zM426 809h242q170 0 248.5 55.5t78.5 167.5q0 120 -90 171.5t-252 51.5h-227v-446z" />
<glyph unicode="S" horiz-adv-x="1333" d="M51 489h283q42 -282 360 -282q53 0 102.5 10.5t94.5 33t72.5 65t27.5 98.5q0 45 -20 80t-58.5 58t-85.5 38t-110 26l-189 35q-95 19 -171.5 52t-139.5 84t-98 126t-35 168q0 87 35.5 159.5t94.5 121.5t136.5 83.5t159.5 50t166 15.5q153 0 282.5 -55.5t211.5 -162.5 t90 -246h-283q-8 63 -38.5 109.5t-75 72t-94.5 37.5t-105 12q-73 0 -135.5 -17.5t-107 -60.5t-44.5 -106q0 -75 55.5 -121t151.5 -64l194 -35q82 -15 147 -33.5t135.5 -54t117.5 -81t77.5 -117t30.5 -160.5t-34 -164t-92 -128t-135 -90.5t-163.5 -55t-177.5 -17.5 q-274 0 -443.5 138.5t-189.5 377.5z" />
<glyph unicode="T" horiz-adv-x="1228" d="M10 1247v238h1209v-238h-459v-1247h-293v1247h-457z" />
<glyph unicode="U" horiz-adv-x="1449" d="M111 629v856h292v-858q0 -106 13 -177.5t47.5 -129.5t99.5 -85.5t164 -27.5q80 0 137 19t92.5 52.5t55.5 88t27.5 115.5t7.5 145v858h292v-856q0 -245 -63.5 -388.5t-195 -205.5t-353.5 -62q-166 0 -280 33.5t-190.5 111t-111 202.5t-34.5 309z" />
<glyph unicode="V" horiz-adv-x="1306" d="M-10 1485h317l355 -1118l344 1118h311l-512 -1485h-299z" />
<glyph unicode="W" horiz-adv-x="1822" d="M10 1485h303l222 -1082l206 1082h342l228 -1088l202 1088h299l-329 -1485h-346l-226 1106l-225 -1106h-346z" />
<glyph unicode="X" horiz-adv-x="1366" d="M-33 0l545 760l-510 725h352l336 -477l342 477h332l-510 -711l545 -774h-352l-371 526l-379 -526h-330z" />
<glyph unicode="Y" horiz-adv-x="1331" d="M-23 1485h342l347 -621l352 621h334l-547 -912v-573h-293v578z" />
<glyph unicode="Z" horiz-adv-x="1273" d="M39 0v229l803 1008h-740v248h1100v-230l-799 -1005h822v-250h-1186z" />
<glyph unicode="[" horiz-adv-x="700" d="M133 -358v1843h526v-205h-274v-1432h274v-206h-526z" />
<glyph unicode="\" horiz-adv-x="813" d="M-10 1485h262l573 -1485h-262z" />
<glyph unicode="]" horiz-adv-x="700" d="M41 -152h276v1432h-276v205h526v-1843h-526v206z" />
<glyph unicode="^" horiz-adv-x="1136" d="M45 692l408 793h233l408 -793h-275l-250 510l-247 -510h-277z" />
<glyph unicode="_" horiz-adv-x="1005" d="M45 0h918v-248h-918v248z" />
<glyph unicode="`" horiz-adv-x="606" d="M45 1485h322l194 -238h-209z" />
<glyph unicode="a" horiz-adv-x="1198" d="M82 297q0 64 23 115.5t69.5 90t106.5 67t146 50t175 36.5t205 28v18q0 120 -56.5 175t-150.5 55q-87 0 -144 -45t-61 -133h-264q18 167 146 271.5t337 104.5q81 0 149.5 -14.5t130 -49.5t104 -89.5t67.5 -139t25 -192.5q0 -8 -2.5 -115.5t-2.5 -164.5q0 -233 33 -365 h-260q-6 26 -18 137q-59 -85 -147 -124.5t-214 -39.5q-107 0 -196.5 38.5t-145 113.5t-55.5 172zM373 311q0 -63 48.5 -104t141.5 -41q252 0 252 256v82q-249 -26 -345.5 -65t-96.5 -128z" />
<glyph unicode="b" horiz-adv-x="1261" d="M127 0v1485h283v-524q44 78 128 121.5t189 43.5q203 0 341 -160t138 -415q0 -171 -65.5 -304.5t-174 -203.5t-239.5 -70q-96 0 -181.5 40t-135.5 126v-139h-283zM399 551q0 -170 70 -265.5t188 -95.5q111 0 181.5 99.5t70.5 259.5q0 159 -70.5 259.5t-181.5 100.5 q-118 0 -188 -96.5t-70 -261.5z" />
<glyph unicode="c" horiz-adv-x="1159" d="M55 549q0 253 153.5 415t399.5 162q88 0 170 -25t151.5 -73t117 -126t61.5 -177h-270q-17 79 -82.5 130.5t-147.5 51.5q-115 0 -189.5 -93.5t-74.5 -260.5q0 -173 73 -266.5t193 -93.5q80 0 145 45t93 137h270q-24 -109 -76.5 -189t-124.5 -125.5t-151.5 -66.5 t-169.5 -21q-162 0 -285.5 74.5t-189.5 205t-66 296.5z" />
<glyph unicode="d" horiz-adv-x="1261" d="M55 551q0 127 37.5 235.5t102.5 182.5t153 115.5t187 41.5q105 0 189 -43.5t128 -121.5v524h283v-1485h-283v139q-50 -86 -135.5 -126t-181.5 -40q-98 0 -185.5 41.5t-153 115t-103.5 183t-38 238.5zM352 549q0 -160 70.5 -259.5t181.5 -99.5q118 0 188 95.5t70 265.5 q0 165 -70 261.5t-188 96.5q-111 0 -181.5 -100.5t-70.5 -259.5z" />
<glyph unicode="e" horiz-adv-x="1204" d="M55 555q0 163 69.5 293t196.5 204t287 74q254 0 402 -180q140 -171 139 -443v-30h-813q11 -134 90.5 -207t187.5 -73q157 0 232 126h291q-24 -66 -65 -124t-103.5 -109.5t-153.5 -82t-199 -30.5q-129 0 -236.5 46.5t-177.5 126t-108.5 185t-38.5 224.5zM340 668h522 q-2 67 -25.5 117.5t-60.5 79t-80 42t-90 13.5q-42 0 -83.5 -14t-80 -42t-66.5 -78.5t-36 -117.5z" />
<glyph unicode="f" horiz-adv-x="673" d="M-2 907v195h156v61q0 83 16.5 140.5t46.5 93.5t82.5 55.5t112 26t149.5 6.5h96v-209h-55q-105 0 -135.5 -22t-30.5 -99v-53h221v-195h-221v-907h-282v907h-156z" />
<glyph unicode="g" horiz-adv-x="1259" d="M55 584q0 235 136.5 388.5t343.5 153.5q103 0 190.5 -47.5t124.5 -120.5v144h280v-991q0 -261 -138 -378.5t-402 -117.5q-92 0 -169.5 18t-144 56.5t-110 106.5t-57.5 161h268q37 -135 227 -135q115 0 180.5 57.5t65.5 177.5v148q-51 -85 -135.5 -125.5t-179.5 -40.5 q-205 0 -342.5 153t-137.5 392zM352 582q0 -137 73 -232.5t181 -95.5q117 0 185.5 90.5t68.5 239.5q0 148 -68.5 237.5t-185.5 89.5q-108 0 -181 -95t-73 -234z" />
<glyph unicode="h" horiz-adv-x="1220" d="M127 0v1485h283v-529q46 83 130 126.5t189 43.5q196 0 288.5 -110t92.5 -322v-694h-283v633q0 58 -7.5 102t-27 83t-58.5 60t-97 21q-54 0 -95 -17.5t-65.5 -46.5t-40 -72.5t-21 -88.5t-5.5 -101v-573h-283z" />
<glyph unicode="i" horiz-adv-x="536" d="M127 0v1102h283v-1102h-283zM127 1223v262h283v-262h-283z" />
<glyph unicode="j" horiz-adv-x="536" d="M-20 -147h36q23 0 39.5 3t29 7t20 14.5t12 20.5t7 29.5t3 37t0.5 47.5v1090h283v-1094q0 -117 -15.5 -186.5t-59 -110.5t-108 -55t-174.5 -14h-73v211zM127 1223v262h283v-262h-283z" />
<glyph unicode="k" horiz-adv-x="1136" d="M127 0v1485h283v-826l401 443h317l-395 -422l418 -680h-317l-289 477l-135 -145v-332h-283z" />
<glyph unicode="l" horiz-adv-x="536" d="M127 0v1485h283v-1485h-283z" />
<glyph unicode="m" horiz-adv-x="1875" d="M127 0v1102h283v-146q47 82 127 126t180 44q219 0 313 -180q67 93 153.5 136.5t209.5 43.5q101 0 174 -30.5t116 -88.5t62.5 -135t19.5 -178v-694h-282v641q0 44 -2 74t-12 68t-28 61t-52 39t-82 16q-55 0 -95.5 -18.5t-64 -47.5t-37.5 -73.5t-18.5 -87.5t-4.5 -99v-573 h-282v641q0 44 -2 74t-12 68t-28 61t-52 39t-82 16q-68 0 -113.5 -26t-67.5 -75.5t-30 -101.5t-8 -123v-573h-283z" />
<glyph unicode="n" horiz-adv-x="1220" d="M127 0v1102h283v-146q46 83 130 126.5t189 43.5q196 0 288.5 -110t92.5 -322v-694h-283v633q0 58 -7.5 102t-27 83t-58.5 60t-97 21q-54 0 -95 -17.5t-65.5 -46.5t-40 -72.5t-21 -88.5t-5.5 -101v-573h-283z" />
<glyph unicode="o" horiz-adv-x="1212" d="M53 549q0 140 47 252.5t125.5 182t176 106t204.5 36.5t204.5 -36.5t176 -106t125.5 -182t47 -252.5q0 -139 -47 -251.5t-125.5 -182t-176 -106t-204.5 -36.5t-204.5 36.5t-176 106t-125.5 182t-47 251.5zM340 549q0 -172 72.5 -263t193.5 -91t193.5 91t72.5 263 t-72.5 264t-193.5 92t-193.5 -92t-72.5 -264z" />
<glyph unicode="p" horiz-adv-x="1261" d="M127 -358v1460h283v-141q44 78 128 121.5t189 43.5q203 0 341 -160t138 -415q0 -171 -66 -304.5t-175 -203.5t-240 -70q-95 0 -180 40t-135 126v-497h-283zM399 551q0 -170 70 -265.5t188 -95.5q111 0 181.5 99.5t70.5 259.5q0 159 -70.5 259.5t-181.5 100.5 q-118 0 -188 -96.5t-70 -261.5z" />
<glyph unicode="q" horiz-adv-x="1263" d="M55 551q0 127 37.5 235.5t102.5 182.5t153 115.5t187 41.5q105 0 189 -43.5t128 -121.5v141h283v-1460h-283v497q-50 -86 -135.5 -126t-181.5 -40q-98 0 -185.5 41.5t-153 115t-103.5 183t-38 238.5zM352 549q0 -160 70.5 -259.5t181.5 -99.5q118 0 188 95.5t70 265.5 q0 165 -70 261.5t-188 96.5q-111 0 -181.5 -100.5t-70.5 -259.5z" />
<glyph unicode="r" horiz-adv-x="776" d="M127 0v1102h279v-193q88 191 290 191q26 0 62 -4v-267q-48 7 -117 7q-114 0 -172.5 -56t-58.5 -202v-578h-283z" />
<glyph unicode="s" horiz-adv-x="1083" d="M55 365h273q13 -84 72.5 -135.5t164.5 -51.5q93 0 146 32.5t53 92.5q0 24 -10 43.5t-25.5 33t-40 25t-48 18.5t-56.5 15l-164 35q-168 35 -256 111t-88 219q0 96 63 171.5t165 115.5t222 40q70 0 134.5 -13t124 -41t105.5 -69.5t78.5 -102t43.5 -134.5h-264 q-18 72 -79.5 115t-156.5 43q-80 0 -129 -28.5t-49 -78.5q0 -94 147 -127l148 -32q54 -12 92 -22t83.5 -25.5t76.5 -32.5t62 -41.5t49.5 -54t30 -69t11.5 -87.5q0 -107 -67.5 -189.5t-175.5 -125t-234 -42.5q-207 0 -344.5 103.5t-157.5 288.5z" />
<glyph unicode="t" horiz-adv-x="731" d="M10 907v195h156v299h283v-299h229v-195h-229v-569q0 -82 30 -108.5t109 -26.5h86v-203h-207q-96 0 -154.5 14.5t-91.5 52.5t-44 90.5t-11 139.5v610h-156z" />
<glyph unicode="u" horiz-adv-x="1214" d="M113 406v696h282v-635q0 -49 3.5 -84.5t14.5 -72t30 -59t52.5 -36.5t79.5 -14q55 0 96 17.5t66 47t41 72.5t21.5 88.5t5.5 101.5v574h282v-1102h-282v145q-46 -83 -131.5 -127.5t-190.5 -44.5q-370 0 -370 433z" />
<glyph unicode="v" horiz-adv-x="1093" d="M0 1102h297l258 -815l258 815h281l-396 -1102h-297z" />
<glyph unicode="w" horiz-adv-x="1503" d="M0 1102h281l147 -762l172 762h301l174 -760l148 760h280l-260 -1102h-291l-200 836l-203 -836h-291z" />
<glyph unicode="x" horiz-adv-x="1112" d="M0 0l406 555l-383 547h315l229 -326l238 326h289l-387 -527l405 -575h-317l-250 354l-258 -354h-287z" />
<glyph unicode="y" horiz-adv-x="1101" d="M0 1102h309l250 -795l256 795h287l-404 -1069q-35 -92 -60.5 -148.5t-56.5 -104t-59 -71.5t-72 -41t-91.5 -21.5t-120.5 -4.5h-119v217h106q31 0 44 0.5t34.5 3.5t32 10t25 19.5t26 32t23.5 48.5l12 31z" />
<glyph unicode="z" horiz-adv-x="1019" d="M45 0v223l580 656h-547v223h885v-223l-580 -656h596v-223h-934z" />
<glyph unicode="{" horiz-adv-x="677" d="M0 453v223q50 0 82 14t47.5 45t21 65.5t5.5 88.5v241q0 106 23.5 175.5t76 109t125 55t182.5 15.5h74v-225h-33q-100 0 -133 -32t-33 -114v-268q0 -90 -26.5 -149.5t-67 -87t-100.5 -42.5v-6q44 -11 77 -29t60.5 -49t42 -81.5t14.5 -118.5v-273q0 -82 33 -113.5 t133 -31.5h33v-223h-74q-110 0 -182 15.5t-125 54.5t-76.5 108.5t-23.5 175.5v244q0 54 -5.5 88.5t-21 65.5t-47.5 45t-82 14z" />
<glyph unicode="|" horiz-adv-x="501" d="M133 -184v1669h236v-1669h-236z" />
<glyph unicode="}" horiz-adv-x="677" d="M41 -135h33q100 0 133 31.5t33 113.5v273q0 68 14.5 118.5t42 81.5t60.5 49t77 29v6q-60 15 -100.5 42.5t-67 87t-26.5 149.5v268q0 82 -33 114t-133 32h-33v225h74q110 0 182.5 -15.5t125 -55t76 -109t23.5 -175.5v-241q0 -54 5.5 -88.5t21 -65.5t47.5 -45t82 -14v-223 q-50 0 -82 -14t-47.5 -45t-21 -65.5t-5.5 -88.5v-244q0 -106 -23.5 -175.5t-76.5 -108.5t-125 -54.5t-182 -15.5h-74v223z" />
<glyph unicode="~" d="M190 354q13 383 308 383q47 0 93 -14.5t83 -34.5t71 -40.5t69.5 -35t66.5 -14.5q55 0 85 32t31 107h201q-16 -383 -307 -383q-49 0 -104 22t-95.5 49t-91.5 49t-92 22q-55 0 -85.5 -32.5t-31.5 -109.5h-201z" />
<glyph unicode="&#xa1;" horiz-adv-x="512" d="M104 795v307h304v-307h-304zM115 0l47 666h184l51 -666v-358h-282v358z" />
<glyph unicode="&#xa2;" horiz-adv-x="1157" d="M68 549q0 231 124 386.5t338 184.5v150h105v-144q88 -4 165.5 -30t142 -73.5t108 -123.5t57.5 -174h-270q-18 75 -72 124.5t-131 55.5v-712q165 10 213 182h270q-24 -104 -71.5 -181.5t-112 -123.5t-138.5 -69.5t-161 -25.5v-157h-105v159q-217 24 -339.5 180.5 t-122.5 391.5zM356 553q0 -141 44.5 -229t129.5 -117v686q-82 -30 -128 -117t-46 -223z" />
<glyph unicode="&#xa3;" horiz-adv-x="1198" d="M23 659v154h184q-49 92 -76 168t-27 160q0 76 30 138.5t80.5 104.5t119 71.5t143.5 42.5t156 13q259 0 403.5 -138.5t139.5 -375.5h-277q0 157 -73 228t-193 71q-100 0 -171 -52t-71 -132q0 -47 18 -104.5t34.5 -91.5t52.5 -103h342v-154h-273q21 -59 21 -106 q0 -171 -180 -301l2 -4q67 28 135 28q46 0 135 -26.5t151 -26.5q107 0 265 64l82 -228q-68 -36 -161 -62t-175 -26q-71 0 -210 46t-212 46q-109 0 -275 -90l-100 201q67 33 112 65t82 75.5t54.5 100t17.5 130.5q0 47 -24 114h-262z" />
<glyph unicode="&#xa4;" horiz-adv-x="1302" d="M111 283l141 143q-90 126 -90 283q0 158 90 284l-141 144l100 100l139 -139q130 100 295 100q172 0 301 -104l146 143l100 -100l-148 -148q91 -132 91 -280q0 -153 -91 -281l148 -145l-100 -101l-146 144q-135 -101 -301 -101q-164 0 -293 99l-141 -142zM389 709 q0 -116 71.5 -194.5t182.5 -78.5q118 0 194 78.5t76 194.5q0 120 -75.5 200t-194.5 80q-111 0 -182.5 -80t-71.5 -200z" />
<glyph unicode="&#xa5;" horiz-adv-x="1374" d="M0 1485h332l356 -666l361 666h325l-461 -780h295v-181h-385v-164h385v-180h-385v-180h-282v180h-373v180h373v164h-373v181h285z" />
<glyph unicode="&#xa6;" horiz-adv-x="489" d="M127 -184v624h235v-624h-235zM127 860v625h235v-625h-235z" />
<glyph unicode="&#xa7;" horiz-adv-x="1253" d="M66 649q0 90 57.5 163t155.5 126q-109 106 -109 250q0 75 38.5 137.5t102 102t142.5 61.5t163 22q199 0 326 -100t150 -281h-261q-12 82 -71 130.5t-150 48.5q-81 0 -127.5 -29.5t-46.5 -77.5q0 -52 38 -90t118 -76l278 -141q160 -80 239 -161t79 -193q0 -96 -61 -173 t-169 -128q119 -109 119 -258q0 -115 -63 -202t-167 -131t-231 -44q-206 0 -340.5 120t-146.5 324h260q18 -121 74 -181.5t162 -60.5q79 0 130.5 40.5t51.5 107.5q0 63 -41 105t-145 94l-261 131q-294 145 -294 364zM330 678q0 -55 38 -91t119 -77l273 -139l24 -15 q61 27 95 64.5t34 79.5q0 52 -44 91.5t-146 94.5l-272 135q-57 -21 -89 -57.5t-32 -85.5z" />
<glyph unicode="&#xa8;" horiz-adv-x="817" d="M45 1247v238h236v-238h-236zM537 1247v238h235v-238h-235z" />
<glyph unicode="&#xa9;" horiz-adv-x="1689" d="M78 739q0 168 60.5 313t163.5 245t244.5 157t299.5 57t298.5 -57t243.5 -157t163.5 -245t60.5 -313q0 -222 -103 -398.5t-277.5 -272t-385.5 -95.5q-158 0 -299.5 56.5t-244.5 155.5t-163.5 243t-60.5 311zM248 739q0 -132 46.5 -247t126.5 -194.5t190 -125t235 -45.5 q258 0 427 172t169 440q0 180 -77.5 321.5t-213 218.5t-305.5 77q-167 0 -303 -77t-215.5 -218.5t-79.5 -321.5zM430 741q0 189 114.5 303.5t303.5 114.5q152 0 263 -83t136 -214l-211 -51q-11 75 -61.5 123.5t-126.5 48.5q-84 0 -137.5 -62.5t-53.5 -179.5 q0 -115 51.5 -178t139.5 -63q163 0 194 155l213 -47q-36 -130 -146 -209.5t-267 -79.5q-190 0 -301 117.5t-111 304.5z" />
<glyph unicode="&#xaa;" horiz-adv-x="729" d="M49 1065q0 55 29.5 95.5t86.5 65.5t129.5 39.5t168.5 20.5v25q0 52 -25 73t-78 21q-45 0 -73.5 -23t-34.5 -67h-182q5 92 90 157.5t219 65.5q141 0 210.5 -61t65.5 -197l-1 -50l-1 -81q0 -163 15 -252h-195q0 35 -2 74q-63 -88 -209 -88q-91 0 -152 49t-61 133zM252 1079 q0 -29 24 -47t60 -18q61 0 96 31t35 112v14q-108 -8 -161.5 -28t-53.5 -64z" />
<glyph unicode="&#xab;" horiz-adv-x="1095" d="M23 559l325 469h256l-256 -469l256 -471h-256zM471 559l326 469h256l-256 -469l256 -471h-256z" />
<glyph unicode="&#xac;" d="M84 631v246h1139v-687h-256v441h-883z" />
<glyph unicode="&#xad;" horiz-adv-x="856" d="M88 424v246h678v-246h-678z" />
<glyph unicode="&#xae;" horiz-adv-x="1689" d="M78 739q0 168 60.5 313t163.5 245t244.5 157t299.5 57t298.5 -57t243.5 -157t163.5 -245t60.5 -313q0 -222 -103 -398.5t-277.5 -272t-385.5 -95.5q-158 0 -299.5 56.5t-244.5 155.5t-163.5 243t-60.5 311zM248 739q0 -132 46.5 -247t126.5 -194.5t190 -125t235 -45.5 q258 0 427 172t169 440q0 180 -77.5 321.5t-213 218.5t-305.5 77q-167 0 -303 -77t-215.5 -218.5t-79.5 -321.5zM494 358v820h327q87 0 152.5 -12.5t119 -42t81.5 -83t28 -131.5q0 -166 -149 -225l198 -326h-245l-172 293h-13h-106v-293h-221zM715 821h162q53 0 78.5 24.5 t25.5 63.5q0 40 -26 68.5t-78 28.5h-162v-185z" />
<glyph unicode="&#xaf;" horiz-adv-x="731" d="M45 1274v194h641v-194h-641z" />
<glyph unicode="&#xb0;" horiz-adv-x="690" d="M16 1182q0 136 96.5 232.5t231.5 96.5q139 0 235.5 -96t96.5 -233q0 -136 -96.5 -233t-235.5 -97q-135 0 -231.5 97.5t-96.5 232.5zM195 1182q0 -67 42 -114.5t107 -47.5q67 0 111.5 47.5t44.5 114.5q0 68 -44.5 114.5t-111.5 46.5q-65 0 -107 -46.5t-42 -114.5z" />
<glyph unicode="&#xb1;" d="M125 0v248h1139v-248h-1139zM125 588v246h440v268h260v-268h439v-246h-439v-271h-260v271h-440z" />
<glyph unicode="&#xb2;" horiz-adv-x="733" d="M37 897v162q25 18 71 50.5t73 51.5t67.5 49t65 50.5t56 47.5t49.5 49t35.5 46.5t25 48t7.5 45.5q0 51 -33 78t-83 27q-58 0 -96.5 -41.5t-34.5 -135.5h-195q-7 148 88.5 235t243.5 87q133 0 220 -65t87 -173q0 -129 -97.5 -235t-295.5 -217h393v-160h-647z" />
<glyph unicode="&#xb3;" horiz-adv-x="780" d="M43 1159h199q10 -72 52 -102.5t99 -30.5q62 0 95.5 29.5t33.5 85.5q0 50 -46 75t-128 25h-59v164h55q80 0 125 26.5t45 79.5q0 42 -35.5 66.5t-85.5 24.5q-126 0 -143 -111h-195q6 68 37.5 119t80.5 80t106.5 43t121.5 14q80 0 148 -21t116 -72t48 -124q0 -62 -35 -113 t-84 -78q60 -24 95.5 -81t35.5 -117q0 -83 -48.5 -143t-122.5 -87.5t-163 -27.5q-64 0 -120 15t-105.5 46t-82 86t-40.5 129z" />
<glyph unicode="&#xb4;" horiz-adv-x="606" d="M45 1247l195 238h321l-307 -238h-209z" />
<glyph unicode="&#xb5;" horiz-adv-x="1228" d="M127 -358q25 147 25 352v1108h251v-572q0 -69 11.5 -127.5t36.5 -106.5t69.5 -75.5t104.5 -27.5q79 0 131 49t72 121.5t20 166.5v572h254v-1102h-254v119q-43 -75 -98.5 -103t-124.5 -28q-149 0 -222 131v-115q0 -206 -24 -362h-252z" />
<glyph unicode="&#xb6;" horiz-adv-x="1032" d="M0 1135q0 164 127.5 257t339.5 93h436v-1667h-168v1511h-229v-1511h-166v968q-48 5 -93 18.5t-91 40.5t-80 65t-55 96t-21 129z" />
<glyph unicode="&#xb7;" horiz-adv-x="512" d="M104 397v308h304v-308h-304z" />
<glyph unicode="&#xb8;" horiz-adv-x="524" d="M45 -360l35 92q56 -29 119 -29q114 0 114 59q0 28 -22 43t-60 15q-46 0 -77 -19l-62 35l105 170h108l-65 -104q25 6 82 6q67 -2 112 -40.5t45 -98.5q0 -76 -70.5 -122t-166.5 -46q-117 0 -197 39z" />
<glyph unicode="&#xb9;" horiz-adv-x="505" d="M20 1446v145q105 4 159 38t81 104h150v-836h-197v549h-193z" />
<glyph unicode="&#xba;" horiz-adv-x="763" d="M49 1210q0 158 96.5 242t237.5 84t237.5 -84t96.5 -242q0 -82 -27.5 -146.5t-74.5 -103t-106 -58t-126 -19.5t-126 19.5t-106 58t-74.5 103t-27.5 146.5zM250 1210q0 -93 36.5 -134.5t96.5 -41.5t97.5 42t37.5 134t-37.5 133t-97.5 41t-96.5 -41t-36.5 -133z" />
<glyph unicode="&#xbb;" horiz-adv-x="1095" d="M45 88l254 471l-254 469h254l326 -469l-326 -471h-254zM494 88l254 471l-254 469h254l325 -469l-325 -471h-254z" />
<glyph unicode="&#xbc;" horiz-adv-x="1781" d="M20 1198v145q105 4 159 38t81 104h150v-836h-197v549h-193zM96 0l1026 1485h291l-1026 -1485h-291zM1038 172v154l422 510h180v-490h109v-174h-109v-172h-196v172h-406zM1253 346h191v234z" />
<glyph unicode="&#xbd;" horiz-adv-x="1738" d="M20 1198v145q105 4 159 38t81 104h150v-836h-197v549h-193zM96 0l1026 1485h291l-1026 -1485h-291zM1040 0v162q25 18 91 64.5t94 67t81 61t77.5 65.5t54 59t41.5 63t12 58q0 51 -33 78t-84 27q-58 0 -96.5 -41.5t-34.5 -135.5h-194q-7 148 88 235t243 87 q133 0 220.5 -65t87.5 -173q0 -129 -98 -235t-296 -217h394v-160h-648z" />
<glyph unicode="&#xbe;" horiz-adv-x="2056" d="M43 911h199q10 -72 52 -102.5t99 -30.5q62 0 95.5 29.5t33.5 85.5q0 50 -46 75t-128 25h-59v164h55q80 0 125 27t45 80q0 42 -35.5 66t-85.5 24q-126 0 -143 -111h-195q6 68 37.5 119t80.5 80t106.5 43t121.5 14q80 0 148 -21t116 -72t48 -124q0 -62 -35 -112t-84 -78 q60 -24 95.5 -81.5t35.5 -117.5q0 -83 -48.5 -143t-122.5 -87.5t-163 -27.5q-64 0 -120 15t-105.5 46t-82 86t-40.5 129zM371 0l1026 1485h291l-1026 -1485h-291zM1313 172v154l422 510h180v-490h108v-174h-108v-172h-197v172h-405zM1528 346h190v234z" />
<glyph unicode="&#xbf;" horiz-adv-x="1073" d="M20 -16q0 56 14.5 105.5t37 85t56.5 69t65 55.5t71 45q75 41 113.5 70.5t63 79t24.5 120.5v64h276v-70q0 -98 -26.5 -169.5t-72 -117.5t-120.5 -90q-116 -70 -148 -97q-69 -59 -69 -134q0 -78 65 -124t152 -46q121 0 195 65.5t78 204.5h276q0 -222 -155.5 -353.5 t-397.5 -131.5q-76 0 -147 13.5t-135 43.5t-112 72.5t-76 104t-28 135.5zM453 795v307h303v-307h-303z" />
<glyph unicode="&#xc0;" horiz-adv-x="1402" d="M0 0l553 1485h295l555 -1485h-318l-104 301h-578l-104 -301h-299zM260 1815h346l211 -232h-231zM487 541h410l-205 585z" />
<glyph unicode="&#xc1;" horiz-adv-x="1402" d="M0 0l553 1485h295l555 -1485h-318l-104 301h-578l-104 -301h-299zM487 541h410l-205 585zM586 1583l211 232h346l-326 -232h-231z" />
<glyph unicode="&#xc2;" horiz-adv-x="1402" d="M0 0l553 1485h295l555 -1485h-318l-104 301h-578l-104 -301h-299zM295 1561l287 231h243l281 -231h-268l-136 100l-141 -100h-266zM487 541h410l-205 585z" />
<glyph unicode="&#xc3;" horiz-adv-x="1402" d="M0 0l553 1485h295l555 -1485h-318l-104 301h-578l-104 -301h-299zM289 1569q11 64 36.5 112.5t54.5 75.5t65.5 44t65.5 22.5t58 5.5q54 0 98 -20.5t80 -41t72 -20.5q80 0 103 82h190q-11 -64 -35.5 -112.5t-53.5 -75.5t-65 -44t-65 -22.5t-59 -5.5q-55 0 -101.5 21 t-83.5 42t-69 21q-84 0 -99 -84h-192zM487 541h410l-205 585z" />
<glyph unicode="&#xc4;" horiz-adv-x="1402" d="M0 0l553 1485h295l555 -1485h-318l-104 301h-578l-104 -301h-299zM338 1583v232h235v-232h-235zM487 541h410l-205 585zM829 1583v232h236v-232h-236z" />
<glyph unicode="&#xc5;" horiz-adv-x="1402" d="M0 0l553 1485h295l555 -1485h-318l-104 301h-578l-104 -301h-299zM487 541h410l-205 585zM516 1741q0 76 53.5 125t130.5 49q79 0 133 -48.5t54 -125.5q0 -74 -54 -124t-133 -50q-78 0 -131 49.5t-53 124.5zM612 1741q0 -37 26 -61.5t62 -24.5t62 24.5t26 61.5 q0 38 -26 63t-62 25t-62 -25t-26 -63z" />
<glyph unicode="&#xc6;" horiz-adv-x="2027" d="M-88 0l985 1485h1081v-238h-788v-368h745v-238h-745v-403h788v-238h-1081v301h-485l-191 -301h-309zM563 541h334v524z" />
<glyph unicode="&#xc7;" horiz-adv-x="1472" d="M82 750q0 352 189 556.5t513 204.5q259 0 428.5 -137t206.5 -370h-278q-73 274 -359 274q-174 0 -285.5 -139t-111.5 -389q0 -256 110 -399.5t277 -143.5q301 0 369 280h278q-30 -228 -205 -371t-438 -143q-328 0 -511 208.5t-183 568.5zM532 -358l35 92q56 -29 119 -29 q115 0 115 59q0 28 -22 43t-60 15q-47 0 -78 -19l-61 35l104 170h109l-66 -104q25 6 82 6q67 -2 112.5 -40.5t45.5 -98.5q0 -76 -71 -122t-167 -46q-117 0 -197 39z" />
<glyph unicode="&#xc8;" horiz-adv-x="1263" d="M133 0v1485h1081v-238h-788v-368h745v-238h-745v-403h788v-238h-1081zM295 1815h346l211 -232h-231z" />
<glyph unicode="&#xc9;" horiz-adv-x="1263" d="M133 0v1485h1081v-238h-788v-368h745v-238h-745v-403h788v-238h-1081zM559 1583l211 232h346l-325 -232h-232z" />
<glyph unicode="&#xca;" horiz-adv-x="1263" d="M133 0v1485h1081v-238h-788v-368h745v-238h-745v-403h788v-238h-1081zM268 1561l287 231h244l280 -231h-268l-135 100l-141 -100h-267z" />
<glyph unicode="&#xcb;" horiz-adv-x="1263" d="M133 0v1485h1081v-238h-788v-368h745v-238h-745v-403h788v-238h-1081zM311 1583v232h236v-232h-236zM803 1583v232h235v-232h-235z" />
<glyph unicode="&#xcc;" horiz-adv-x="559" d="M-160 1815h346l211 -232h-231zM133 0v1485h293v-1485h-293z" />
<glyph unicode="&#xcd;" horiz-adv-x="559" d="M133 0v1485h293v-1485h-293zM164 1583l211 232h346l-326 -232h-231z" />
<glyph unicode="&#xce;" horiz-adv-x="559" d="M-125 1561l287 231h244l280 -231h-268l-135 100l-142 -100h-266zM133 0v1485h293v-1485h-293z" />
<glyph unicode="&#xcf;" horiz-adv-x="559" d="M-82 1583v232h236v-232h-236zM133 0v1485h293v-1485h-293zM410 1583v232h235v-232h-235z" />
<glyph unicode="&#xd0;" horiz-adv-x="1515" d="M0 631v237h176v617h440q149 0 267.5 -20t225.5 -71.5t178.5 -134t113 -213t41.5 -303.5t-41.5 -303.5t-113 -213t-178.5 -134.5t-225.5 -72t-267.5 -20h-440v631h-176zM469 229h135q63 0 114.5 5t108.5 19t100.5 37t84.5 62.5t68 92t43 128.5t16 170q0 93 -16 168 t-43 127.5t-67.5 92t-85 63t-101 37.5t-108.5 19t-114 5h-135v-387h262v-237h-262v-402z" />
<glyph unicode="&#xd1;" horiz-adv-x="1517" d="M133 0v1485h381l594 -1133v1133h276v-1485h-380l-594 1133v-1133h-277zM387 1569q11 64 36.5 112.5t55 75.5t66 44t65.5 22.5t58 5.5q54 0 98 -20.5t80 -41t72 -20.5q79 0 102 82h190q-11 -64 -35.5 -112.5t-53.5 -75.5t-65 -44t-65 -22.5t-59 -5.5q-55 0 -101.5 21 t-83.5 42t-69 21q-83 0 -98 -84h-193z" />
<glyph unicode="&#xd2;" horiz-adv-x="1601" d="M74 743q0 347 198.5 557.5t528.5 210.5t528.5 -210.5t198.5 -557.5t-198.5 -558.5t-528.5 -211.5t-528.5 211.5t-198.5 558.5zM360 1815h347l211 -232h-232zM377 743q0 -128 33.5 -231t92 -169t135 -101t163.5 -35t163.5 35t135 101t92 169t33.5 231q0 127 -33.5 230 t-92 169t-135 101t-163.5 35t-163.5 -35t-135 -101t-92 -169t-33.5 -230z" />
<glyph unicode="&#xd3;" horiz-adv-x="1601" d="M74 743q0 347 198.5 557.5t528.5 210.5t528.5 -210.5t198.5 -557.5t-198.5 -558.5t-528.5 -211.5t-528.5 211.5t-198.5 558.5zM377 743q0 -128 33.5 -231t92 -169t135 -101t163.5 -35t163.5 35t135 101t92 169t33.5 231q0 127 -33.5 230t-92 169t-135 101t-163.5 35 t-163.5 -35t-135 -101t-92 -169t-33.5 -230zM686 1583l211 232h346l-325 -232h-232z" />
<glyph unicode="&#xd4;" horiz-adv-x="1601" d="M74 743q0 347 198.5 557.5t528.5 210.5t528.5 -210.5t198.5 -557.5t-198.5 -558.5t-528.5 -211.5t-528.5 211.5t-198.5 558.5zM377 743q0 -128 33.5 -231t92 -169t135 -101t163.5 -35t163.5 35t135 101t92 169t33.5 231q0 127 -33.5 230t-92 169t-135 101t-163.5 35 t-163.5 -35t-135 -101t-92 -169t-33.5 -230zM395 1561l287 231h244l280 -231h-268l-135 100l-141 -100h-267z" />
<glyph unicode="&#xd5;" horiz-adv-x="1601" d="M74 743q0 347 198.5 557.5t528.5 210.5t528.5 -210.5t198.5 -557.5t-198.5 -558.5t-528.5 -211.5t-528.5 211.5t-198.5 558.5zM377 743q0 -128 33.5 -231t92 -169t135 -101t163.5 -35t163.5 35t135 101t92 169t33.5 231q0 127 -33.5 230t-92 169t-135 101t-163.5 35 t-163.5 -35t-135 -101t-92 -169t-33.5 -230zM389 1569q11 64 36.5 112.5t55 75.5t66 44t65.5 22.5t58 5.5q54 0 98 -20.5t80 -41t72 -20.5q79 0 102 82h190q-11 -64 -35.5 -112.5t-53.5 -75.5t-65 -44t-65 -22.5t-59 -5.5q-55 0 -101.5 21t-83.5 42t-69 21q-83 0 -98 -84 h-193z" />
<glyph unicode="&#xd6;" horiz-adv-x="1601" d="M74 743q0 347 198.5 557.5t528.5 210.5t528.5 -210.5t198.5 -557.5t-198.5 -558.5t-528.5 -211.5t-528.5 211.5t-198.5 558.5zM377 743q0 -128 33.5 -231t92 -169t135 -101t163.5 -35t163.5 35t135 101t92 169t33.5 231q0 127 -33.5 230t-92 169t-135 101t-163.5 35 t-163.5 -35t-135 -101t-92 -169t-33.5 -230zM438 1583v232h236v-232h-236zM930 1583v232h235v-232h-235z" />
<glyph unicode="&#xd7;" d="M211 223l326 330l-322 321l166 164l321 -321l328 327l148 -151l-326 -326l328 -327l-164 -166l-330 327l-326 -325z" />
<glyph unicode="&#xd8;" horiz-adv-x="1599" d="M74 743q0 347 198.5 557.5t528.5 210.5q258 0 444 -135l111 129l114 -94l-116 -137q174 -205 174 -531q0 -347 -198.5 -558.5t-528.5 -211.5q-263 0 -443 133l-127 -147l-112 96l131 154q-176 204 -176 534zM377 743q0 -182 65 -309l629 737q-113 107 -270 107 q-87 0 -163.5 -35t-135 -101t-92 -169t-33.5 -230zM532 311q110 -104 269 -104q87 0 163.5 35t135 101t92 169t33.5 231q0 181 -64 306z" />
<glyph unicode="&#xd9;" horiz-adv-x="1449" d="M111 629v856h292v-858q0 -106 13 -177.5t47.5 -129.5t99.5 -85.5t164 -27.5q80 0 137 19t92.5 52.5t55.5 88t27.5 115.5t7.5 145v858h292v-856q0 -245 -63.5 -388.5t-195 -205.5t-353.5 -62q-166 0 -280 33.5t-190.5 111t-111 202.5t-34.5 309zM285 1815h346l211 -232 h-232z" />
<glyph unicode="&#xda;" horiz-adv-x="1449" d="M111 629v856h292v-858q0 -106 13 -177.5t47.5 -129.5t99.5 -85.5t164 -27.5q80 0 137 19t92.5 52.5t55.5 88t27.5 115.5t7.5 145v858h292v-856q0 -245 -63.5 -388.5t-195 -205.5t-353.5 -62q-166 0 -280 33.5t-190.5 111t-111 202.5t-34.5 309zM610 1583l211 232h346 l-325 -232h-232z" />
<glyph unicode="&#xdb;" horiz-adv-x="1449" d="M111 629v856h292v-858q0 -106 13 -177.5t47.5 -129.5t99.5 -85.5t164 -27.5q80 0 137 19t92.5 52.5t55.5 88t27.5 115.5t7.5 145v858h292v-856q0 -245 -63.5 -388.5t-195 -205.5t-353.5 -62q-166 0 -280 33.5t-190.5 111t-111 202.5t-34.5 309zM319 1561l287 231h244 l280 -231h-268l-135 100l-141 -100h-267z" />
<glyph unicode="&#xdc;" horiz-adv-x="1449" d="M111 629v856h292v-858q0 -106 13 -177.5t47.5 -129.5t99.5 -85.5t164 -27.5q80 0 137 19t92.5 52.5t55.5 88t27.5 115.5t7.5 145v858h292v-856q0 -245 -63.5 -388.5t-195 -205.5t-353.5 -62q-166 0 -280 33.5t-190.5 111t-111 202.5t-34.5 309zM362 1583v232h236v-232 h-236zM854 1583v232h236v-232h-236z" />
<glyph unicode="&#xdd;" horiz-adv-x="1331" d="M-23 1485h342l347 -621l352 621h334l-547 -912v-573h-293v578zM549 1583l211 232h346l-326 -232h-231z" />
<glyph unicode="&#xde;" horiz-adv-x="1267" d="M133 0v1485h299v-238h191q56 0 102 -2t100.5 -8.5t98 -17.5t90 -30t82 -44.5t68 -63t53 -83.5t33 -107.5t12.5 -134.5q0 -111 -33.5 -194.5t-89 -135.5t-138.5 -84t-171.5 -44.5t-198.5 -12.5h-199v-285h-299zM432 520h203q74 0 128 9.5t101.5 33.5t72 72t24.5 119 q0 69 -22 118.5t-53.5 75.5t-82.5 40.5t-91.5 18t-97.5 3.5h-182v-490z" />
<glyph unicode="&#xdf;" horiz-adv-x="1335" d="M127 0v963q0 158 31 253t92 156q139 139 428 139q107 0 196 -22.5t158 -67.5t107.5 -119.5t38.5 -171.5q0 -111 -48 -186t-112 -104q108 -40 179 -142t71 -256q0 -223 -147 -346t-392 -123q-141 0 -244 27l43 227q92 -30 191 -30q119 0 190.5 64.5t71.5 178.5 q0 73 -26 124.5t-76 80.5t-112.5 42t-143.5 13h-39v228h28q146 0 216.5 42.5t70.5 143.5q0 87 -59 135.5t-168 48.5q-142 0 -205 -84q-30 -36 -43.5 -92.5t-13.5 -156.5v-965h-283z" />
<glyph unicode="&#xe0;" horiz-adv-x="1198" d="M82 297q0 64 23 115.5t69.5 90t106.5 67t146 50t175 36.5t205 28v18q0 120 -56.5 175t-150.5 55q-87 0 -144 -45t-61 -133h-264q18 167 146 271.5t337 104.5q81 0 149.5 -14.5t130 -49.5t104 -89.5t67.5 -139t25 -192.5q0 -8 -2.5 -115.5t-2.5 -164.5q0 -233 33 -365 h-260q-6 26 -18 137q-59 -85 -147 -124.5t-214 -39.5q-107 0 -196.5 38.5t-145 113.5t-55.5 172zM182 1485h322l194 -238h-209zM373 311q0 -63 48.5 -104t141.5 -41q252 0 252 256v82q-249 -26 -345.5 -65t-96.5 -128z" />
<glyph unicode="&#xe1;" horiz-adv-x="1198" d="M82 297q0 64 23 115.5t69.5 90t106.5 67t146 50t175 36.5t205 28v18q0 120 -56.5 175t-150.5 55q-87 0 -144 -45t-61 -133h-264q18 167 146 271.5t337 104.5q81 0 149.5 -14.5t130 -49.5t104 -89.5t67.5 -139t25 -192.5q0 -8 -2.5 -115.5t-2.5 -164.5q0 -233 33 -365 h-260q-6 26 -18 137q-59 -85 -147 -124.5t-214 -39.5q-107 0 -196.5 38.5t-145 113.5t-55.5 172zM373 311q0 -63 48.5 -104t141.5 -41q252 0 252 256v82q-249 -26 -345.5 -65t-96.5 -128zM489 1247l195 238h322l-308 -238h-209z" />
<glyph unicode="&#xe2;" horiz-adv-x="1198" d="M82 297q0 64 23 115.5t69.5 90t106.5 67t146 50t175 36.5t205 28v18q0 120 -56.5 175t-150.5 55q-87 0 -144 -45t-61 -133h-264q18 167 146 271.5t337 104.5q81 0 149.5 -14.5t130 -49.5t104 -89.5t67.5 -139t25 -192.5q0 -8 -2.5 -115.5t-2.5 -164.5q0 -233 33 -365 h-260q-6 26 -18 137q-59 -85 -147 -124.5t-214 -39.5q-107 0 -196.5 38.5t-145 113.5t-55.5 172zM190 1247l302 238h202l303 -238h-247l-156 90l-156 -90h-248zM373 311q0 -63 48.5 -104t141.5 -41q252 0 252 256v82q-249 -26 -345.5 -65t-96.5 -128z" />
<glyph unicode="&#xe3;" horiz-adv-x="1198" d="M82 297q0 64 23 115.5t69.5 90t106.5 67t146 50t175 36.5t205 28v18q0 120 -56.5 175t-150.5 55q-87 0 -144 -45t-61 -133h-264q18 167 146 271.5t337 104.5q81 0 149.5 -14.5t130 -49.5t104 -89.5t67.5 -139t25 -192.5q0 -8 -2.5 -115.5t-2.5 -164.5q0 -233 33 -365 h-260q-6 26 -18 137q-59 -85 -147 -124.5t-214 -39.5q-107 0 -196.5 38.5t-145 113.5t-55.5 172zM176 1247q11 69 35.5 119t51.5 76.5t63.5 42t63.5 19t59 3.5q44 0 83.5 -14t63.5 -31t56 -31t63 -14q87 0 102 90h195q-11 -69 -35.5 -119.5t-51.5 -77t-64 -41.5t-63 -18.5 t-59 -3.5q-55 0 -104.5 22.5t-90 45t-73.5 22.5q-85 0 -100 -90h-195zM373 311q0 -63 48.5 -104t141.5 -41q252 0 252 256v82q-249 -26 -345.5 -65t-96.5 -128z" />
<glyph unicode="&#xe4;" horiz-adv-x="1198" d="M82 297q0 64 23 115.5t69.5 90t106.5 67t146 50t175 36.5t205 28v18q0 120 -56.5 175t-150.5 55q-87 0 -144 -45t-61 -133h-264q18 167 146 271.5t337 104.5q81 0 149.5 -14.5t130 -49.5t104 -89.5t67.5 -139t25 -192.5q0 -8 -2.5 -115.5t-2.5 -164.5q0 -233 33 -365 h-260q-6 26 -18 137q-59 -85 -147 -124.5t-214 -39.5q-107 0 -196.5 38.5t-145 113.5t-55.5 172zM231 1247v238h236v-238h-236zM373 311q0 -63 48.5 -104t141.5 -41q252 0 252 256v82q-249 -26 -345.5 -65t-96.5 -128zM723 1247v238h235v-238h-235z" />
<glyph unicode="&#xe5;" horiz-adv-x="1198" d="M82 297q0 64 23 115.5t69.5 90t106.5 67t146 50t175 36.5t205 28v18q0 120 -56.5 175t-150.5 55q-87 0 -144 -45t-61 -133h-264q18 167 146 271.5t337 104.5q81 0 149.5 -14.5t130 -49.5t104 -89.5t67.5 -139t25 -192.5q0 -8 -2.5 -115.5t-2.5 -164.5q0 -233 33 -365 h-260q-6 26 -18 137q-59 -85 -147 -124.5t-214 -39.5q-107 0 -196.5 38.5t-145 113.5t-55.5 172zM373 311q0 -63 48.5 -104t141.5 -41q252 0 252 256v82q-249 -26 -345.5 -65t-96.5 -128zM401 1425q0 78 57 130.5t138 52.5q79 0 135.5 -52.5t56.5 -130.5q0 -77 -56 -129.5 t-136 -52.5q-83 0 -139 51.5t-56 130.5zM512 1425q0 -35 24.5 -58.5t59.5 -23.5t59.5 23.5t24.5 58.5q0 36 -24 60t-60 24t-60 -24t-24 -60z" />
<glyph unicode="&#xe6;" horiz-adv-x="1929" d="M82 297q0 64 23 115.5t69.5 90t106.5 67t146 50t175 36.5t205 28v18q0 120 -56 175t-149 55q-87 0 -144 -45t-61 -133h-264q18 167 146 271.5t337 104.5q251 0 355 -145q141 141 362 141q254 0 401.5 -180t139.5 -473h-813q11 -134 90.5 -207t187.5 -73q157 0 232 126 h291q-24 -66 -65 -124t-103.5 -109.5t-153.5 -82t-199 -30.5q-284 0 -426 211q-127 -211 -436 -211q-107 0 -196.5 38.5t-145 113.5t-55.5 172zM373 311q0 -63 48.5 -104t141.5 -41q252 0 252 256v82q-249 -26 -345.5 -65t-96.5 -128zM1065 668h522q-2 67 -25.5 117.5 t-60.5 79t-80 42t-90 13.5q-42 0 -83.5 -14t-80 -42t-66.5 -78.5t-36 -117.5z" />
<glyph unicode="&#xe7;" horiz-adv-x="1159" d="M55 549q0 253 153.5 415t399.5 162q88 0 170 -25t151.5 -73t117 -126t61.5 -177h-270q-17 79 -82.5 130.5t-147.5 51.5q-115 0 -189.5 -93.5t-74.5 -260.5q0 -173 73 -266.5t193 -93.5q80 0 145 45t93 137h270q-24 -109 -76.5 -189t-124.5 -125.5t-151.5 -66.5 t-169.5 -21q-162 0 -285.5 74.5t-189.5 205t-66 296.5zM362 -360l35 92q56 -29 119 -29q115 0 115 59q0 28 -22 43t-60 15q-47 0 -78 -19l-61 35l104 170h109l-66 -104q25 6 82 6q67 -2 112.5 -40.5t45.5 -98.5q0 -76 -71 -122t-167 -46q-117 0 -197 39z" />
<glyph unicode="&#xe8;" horiz-adv-x="1204" d="M55 555q0 163 69.5 293t196.5 204t287 74q254 0 401.5 -180t139.5 -473h-813q11 -134 90.5 -207t187.5 -73q157 0 232 126h291q-24 -66 -65 -124t-103.5 -109.5t-153.5 -82t-199 -30.5q-129 0 -236.5 46.5t-177.5 126t-108.5 185t-38.5 224.5zM184 1485h322l194 -238 h-208zM340 668h522q-2 67 -25.5 117.5t-60.5 79t-80 42t-90 13.5q-42 0 -83.5 -14t-80 -42t-66.5 -78.5t-36 -117.5z" />
<glyph unicode="&#xe9;" horiz-adv-x="1204" d="M55 555q0 163 69.5 293t196.5 204t287 74q254 0 401.5 -180t139.5 -473h-813q11 -134 90.5 -207t187.5 -73q157 0 232 126h291q-24 -66 -65 -124t-103.5 -109.5t-153.5 -82t-199 -30.5q-129 0 -236.5 46.5t-177.5 126t-108.5 185t-38.5 224.5zM340 668h522 q-2 67 -25.5 117.5t-60.5 79t-80 42t-90 13.5q-42 0 -83.5 -14t-80 -42t-66.5 -78.5t-36 -117.5zM492 1247l194 238h322l-308 -238h-208z" />
<glyph unicode="&#xea;" horiz-adv-x="1204" d="M55 555q0 163 69.5 293t196.5 204t287 74q254 0 401.5 -180t139.5 -473h-813q11 -134 90.5 -207t187.5 -73q157 0 232 126h291q-24 -66 -65 -124t-103.5 -109.5t-153.5 -82t-199 -30.5q-129 0 -236.5 46.5t-177.5 126t-108.5 185t-38.5 224.5zM203 1247l301 238h203 l303 -238h-248l-156 90l-155 -90h-248zM340 668h522q-2 67 -25.5 117.5t-60.5 79t-80 42t-90 13.5q-42 0 -83.5 -14t-80 -42t-66.5 -78.5t-36 -117.5z" />
<glyph unicode="&#xeb;" horiz-adv-x="1204" d="M55 555q0 163 69.5 293t196.5 204t287 74q254 0 401.5 -180t139.5 -473h-813q11 -134 90.5 -207t187.5 -73q157 0 232 126h291q-24 -66 -65 -124t-103.5 -109.5t-153.5 -82t-199 -30.5q-129 0 -236.5 46.5t-177.5 126t-108.5 185t-38.5 224.5zM233 1247v238h236v-238 h-236zM340 668h522q-2 67 -25.5 117.5t-60.5 79t-80 42t-90 13.5q-42 0 -83.5 -14t-80 -42t-66.5 -78.5t-36 -117.5zM725 1247v238h236v-238h-236z" />
<glyph unicode="&#xec;" horiz-adv-x="536" d="M-141 1485h321l195 -238h-209zM127 0v1102h283v-1102h-283z" />
<glyph unicode="&#xed;" horiz-adv-x="536" d="M127 0v1102h283v-1102h-283zM164 1247l194 238h322l-307 -238h-209z" />
<glyph unicode="&#xee;" horiz-adv-x="536" d="M-133 1247l301 238h203l303 -238h-248l-156 90l-155 -90h-248zM127 0v1102h283v-1102h-283z" />
<glyph unicode="&#xef;" horiz-adv-x="536" d="M-92 1247v238h235v-238h-235zM127 0v1102h283v-1102h-283zM399 1247v238h236v-238h-236z" />
<glyph unicode="&#xf0;" horiz-adv-x="1191" d="M55 541q0 135 37.5 246.5t102.5 185t152.5 113.5t187.5 40q101 0 185.5 -49t123.5 -119l2 3q-67 161 -268 301l-136 -82l-116 55l149 92q-84 48 -162 78l199 123q75 -34 154 -84l120 76l119 -58l-139 -86q360 -270 360 -739q0 -165 -41.5 -293.5t-115.5 -208.5 t-171.5 -121t-213.5 -41q-232 0 -380.5 154t-148.5 414zM352 549q0 -164 63.5 -261.5t178.5 -97.5q118 0 186 95.5t68 265.5q0 166 -68.5 262t-185.5 96q-115 0 -178.5 -98t-63.5 -262z" />
<glyph unicode="&#xf1;" horiz-adv-x="1220" d="M127 0v1102h283v-146q46 83 130 126.5t189 43.5q196 0 288.5 -110t92.5 -322v-694h-283v633q0 58 -7.5 102t-27 83t-58.5 60t-97 21q-54 0 -95 -17.5t-65.5 -46.5t-40 -72.5t-21 -88.5t-5.5 -101v-573h-283zM221 1247q11 69 35.5 119t51.5 76.5t63.5 42t63.5 19t59 3.5 q44 0 83.5 -14t63.5 -31t56 -31t63 -14q87 0 102 90h195q-11 -69 -35.5 -119.5t-51.5 -77t-64 -41.5t-63 -18.5t-59 -3.5q-55 0 -104.5 22.5t-90 45t-73.5 22.5q-85 0 -100 -90h-195z" />
<glyph unicode="&#xf2;" horiz-adv-x="1212" d="M53 549q0 140 47 252.5t125.5 182t176 106t204.5 36.5t204.5 -36.5t176 -106t125.5 -182t47 -252.5q0 -139 -47 -251.5t-125.5 -182t-176 -106t-204.5 -36.5t-204.5 36.5t-176 106t-125.5 182t-47 251.5zM186 1485h322l194 -238h-208zM340 549q0 -172 72.5 -263 t193.5 -91t193.5 91t72.5 263t-72.5 264t-193.5 92t-193.5 -92t-72.5 -264z" />
<glyph unicode="&#xf3;" horiz-adv-x="1212" d="M53 549q0 140 47 252.5t125.5 182t176 106t204.5 36.5t204.5 -36.5t176 -106t125.5 -182t47 -252.5q0 -139 -47 -251.5t-125.5 -182t-176 -106t-204.5 -36.5t-204.5 36.5t-176 106t-125.5 182t-47 251.5zM340 549q0 -172 72.5 -263t193.5 -91t193.5 91t72.5 263 t-72.5 264t-193.5 92t-193.5 -92t-72.5 -264zM494 1247l194 238h322l-308 -238h-208z" />
<glyph unicode="&#xf4;" horiz-adv-x="1212" d="M53 549q0 140 47 252.5t125.5 182t176 106t204.5 36.5t204.5 -36.5t176 -106t125.5 -182t47 -252.5q0 -139 -47 -251.5t-125.5 -182t-176 -106t-204.5 -36.5t-204.5 36.5t-176 106t-125.5 182t-47 251.5zM195 1247l301 238h202l303 -238h-247l-156 90l-156 -90h-247z M340 549q0 -172 72.5 -263t193.5 -91t193.5 91t72.5 263t-72.5 264t-193.5 92t-193.5 -92t-72.5 -264z" />
<glyph unicode="&#xf5;" horiz-adv-x="1212" d="M53 549q0 140 47 252.5t125.5 182t176 106t204.5 36.5t204.5 -36.5t176 -106t125.5 -182t47 -252.5q0 -139 -47 -251.5t-125.5 -182t-176 -106t-204.5 -36.5t-204.5 36.5t-176 106t-125.5 182t-47 251.5zM180 1247q11 69 35.5 119t51.5 76.5t63.5 42t63.5 19t59 3.5 q44 0 83.5 -14t63.5 -31t56 -31t63 -14q87 0 102 90h195q-11 -69 -35.5 -119.5t-51.5 -77t-64 -41.5t-63 -18.5t-59 -3.5q-55 0 -104.5 22.5t-90 45t-73.5 22.5q-85 0 -100 -90h-195zM340 549q0 -172 72.5 -263t193.5 -91t193.5 91t72.5 263t-72.5 264t-193.5 92t-193.5 -92 t-72.5 -264z" />
<glyph unicode="&#xf6;" horiz-adv-x="1212" d="M53 549q0 140 47 252.5t125.5 182t176 106t204.5 36.5t204.5 -36.5t176 -106t125.5 -182t47 -252.5q0 -139 -47 -251.5t-125.5 -182t-176 -106t-204.5 -36.5t-204.5 36.5t-176 106t-125.5 182t-47 251.5zM236 1247v238h235v-238h-235zM340 549q0 -172 72.5 -263 t193.5 -91t193.5 91t72.5 263t-72.5 264t-193.5 92t-193.5 -92t-72.5 -264zM727 1247v238h236v-238h-236z" />
<glyph unicode="&#xf7;" d="M147 426v246h1096v-246h-1096zM541 47v285h303v-285h-303zM541 766v287h303v-287h-303z" />
<glyph unicode="&#xf8;" horiz-adv-x="1212" d="M53 18l125 146q-125 144 -125 385q0 140 47 252.5t125.5 182t176 106t204.5 36.5q181 0 324 -98l102 119l101 -90l-105 -119q131 -157 131 -389q0 -139 -47 -251.5t-125.5 -182t-176 -106t-204.5 -36.5q-183 0 -327 99l-127 -146zM340 549q0 -95 25 -172l405 467 q-67 61 -164 61q-121 0 -193.5 -92t-72.5 -264zM438 258q63 -63 168 -63q121 0 193.5 91t72.5 263q0 96 -26 176z" />
<glyph unicode="&#xf9;" horiz-adv-x="1214" d="M113 406v696h282v-635q0 -49 3.5 -84.5t14.5 -72t30 -59t52.5 -36.5t79.5 -14q55 0 96 17.5t66 47t41 72.5t21.5 88.5t5.5 101.5v574h282v-1102h-282v145q-46 -83 -131.5 -127.5t-190.5 -44.5q-370 0 -370 433zM229 1485h322l194 -238h-208z" />
<glyph unicode="&#xfa;" horiz-adv-x="1214" d="M113 406v696h282v-635q0 -49 3.5 -84.5t14.5 -72t30 -59t52.5 -36.5t79.5 -14q55 0 96 17.5t66 47t41 72.5t21.5 88.5t5.5 101.5v574h282v-1102h-282v145q-46 -83 -131.5 -127.5t-190.5 -44.5q-370 0 -370 433zM496 1247l194 238h322l-307 -238h-209z" />
<glyph unicode="&#xfb;" horiz-adv-x="1214" d="M113 406v696h282v-635q0 -49 3.5 -84.5t14.5 -72t30 -59t52.5 -36.5t79.5 -14q55 0 96 17.5t66 47t41 72.5t21.5 88.5t5.5 101.5v574h282v-1102h-282v145q-46 -83 -131.5 -127.5t-190.5 -44.5q-370 0 -370 433zM197 1247l301 238h202l304 -238h-248l-156 90l-156 -90 h-247z" />
<glyph unicode="&#xfc;" horiz-adv-x="1214" d="M113 406v696h282v-635q0 -49 3.5 -84.5t14.5 -72t30 -59t52.5 -36.5t79.5 -14q55 0 96 17.5t66 47t41 72.5t21.5 88.5t5.5 101.5v574h282v-1102h-282v145q-46 -83 -131.5 -127.5t-190.5 -44.5q-370 0 -370 433zM238 1247v238h235v-238h-235zM729 1247v238h236v-238h-236z " />
<glyph unicode="&#xfd;" horiz-adv-x="1101" d="M0 1102h309l250 -795l256 795h287l-404 -1069q-35 -92 -60.5 -148.5t-56.5 -104t-59 -71.5t-72 -41t-91.5 -21.5t-120.5 -4.5h-119v217h106q31 0 44 0.5t34.5 3.5t32 10t25 19.5t26 32t23.5 48.5l12 31zM446 1247l195 238h322l-308 -238h-209z" />
<glyph unicode="&#xfe;" horiz-adv-x="1261" d="M127 -358v1843h283v-524q44 78 125.5 121.5t185.5 43.5q204 0 344.5 -160.5t140.5 -414.5q0 -129 -39 -238.5t-105 -183t-154.5 -115t-186.5 -41.5q-95 0 -177.5 40t-133.5 126v-497h-283zM399 551q0 -170 70 -265.5t188 -95.5q111 0 181.5 99.5t70.5 259.5 q0 159 -70.5 259.5t-181.5 100.5q-118 0 -188 -96.5t-70 -261.5z" />
<glyph unicode="&#xff;" horiz-adv-x="1101" d="M0 1102h309l250 -795l256 795h287l-404 -1069q-35 -92 -60.5 -148.5t-56.5 -104t-59 -71.5t-72 -41t-91.5 -21.5t-120.5 -4.5h-119v217h106q31 0 44 0.5t34.5 3.5t32 10t25 19.5t26 32t23.5 48.5l12 31zM209 1247v238h235v-238h-235zM700 1247v238h236v-238h-236z" />
<glyph unicode="&#x152;" horiz-adv-x="2314" d="M74 750q0 350 194 555.5t525 205.5q253 0 417 -145v119h1055v-238h-790v-368h745v-238h-745v-403h790v-238h-1055v123q-162 -150 -417 -150q-218 0 -381.5 96.5t-250.5 272.5t-87 408zM377 750q0 -129 32.5 -233.5t89.5 -171.5t132 -102.5t162 -35.5q183 0 298 142.5 t115 400.5q0 256 -114 392t-299 136q-87 0 -162 -33.5t-132 -97.5t-89.5 -166t-32.5 -231z" />
<glyph unicode="&#x153;" horiz-adv-x="2004" d="M53 549q0 140 47 252.5t125.5 182t176 106t204.5 36.5q252 0 395 -186q153 186 408 186q254 0 401.5 -180t139.5 -473h-813q11 -134 90.5 -207t187.5 -73q157 0 232 126h290q-24 -66 -65 -124t-103 -109.5t-153 -82t-199 -30.5q-268 0 -413 185q-71 -92 -174 -138.5 t-224 -46.5q-107 0 -204.5 36.5t-176 106t-125.5 182t-47 251.5zM340 549q0 -172 72.5 -263t193.5 -91t193.5 91t72.5 263t-72.5 264t-193.5 92t-193.5 -92t-72.5 -264zM1141 668h522q-2 67 -25.5 117.5t-60.5 79t-80 42t-90 13.5q-42 0 -83.5 -14t-80 -42t-66.5 -78.5 t-36 -117.5z" />
<glyph unicode="&#x178;" horiz-adv-x="1331" d="M-23 1485h342l347 -621l352 621h334l-547 -912v-573h-293v578zM301 1583v232h236v-232h-236zM793 1583v232h235v-232h-235z" />
<glyph unicode="&#x2c6;" horiz-adv-x="897" d="M45 1247l301 238h203l303 -238h-248l-155 90l-156 -90h-248z" />
<glyph unicode="&#x2dc;" horiz-adv-x="925" d="M45 1247q11 69 35.5 119t51.5 76.5t63 42t63 19t59 3.5q56 0 102.5 -22.5t86.5 -45t78 -22.5q87 0 102 90h195q-11 -69 -35.5 -119.5t-51.5 -77t-64 -41.5t-63 -18.5t-59 -3.5q-55 0 -104.5 22.5t-90 45t-73.5 22.5q-85 0 -100 -90h-195z" />
<glyph unicode="&#x2000;" horiz-adv-x="957" />
<glyph unicode="&#x2001;" horiz-adv-x="1915" />
<glyph unicode="&#x2002;" horiz-adv-x="957" />
<glyph unicode="&#x2003;" horiz-adv-x="1915" />
<glyph unicode="&#x2004;" horiz-adv-x="638" />
<glyph unicode="&#x2005;" horiz-adv-x="478" />
<glyph unicode="&#x2006;" horiz-adv-x="319" />
<glyph unicode="&#x2007;" horiz-adv-x="319" />
<glyph unicode="&#x2008;" horiz-adv-x="239" />
<glyph unicode="&#x2009;" horiz-adv-x="383" />
<glyph unicode="&#x200a;" horiz-adv-x="106" />
<glyph unicode="&#x2010;" horiz-adv-x="856" d="M88 424v246h678v-246h-678z" />
<glyph unicode="&#x2011;" horiz-adv-x="856" d="M88 424v246h678v-246h-678z" />
<glyph unicode="&#x2012;" horiz-adv-x="856" d="M88 424v246h678v-246h-678z" />
<glyph unicode="&#x2013;" horiz-adv-x="1048" d="M66 424v246h917v-246h-917z" />
<glyph unicode="&#x2014;" horiz-adv-x="1490" d="M66 424v246h1359v-246h-1359z" />
<glyph unicode="&#x2018;" horiz-adv-x="524" d="M104 850v326l170 309h160l-151 -332h139v-303h-318z" />
<glyph unicode="&#x2019;" horiz-adv-x="524" d="M92 829l152 349h-140v307h318v-330l-168 -326h-162z" />
<glyph unicode="&#x201a;" horiz-adv-x="526" d="M92 -348l152 348h-140v307h318v-330l-168 -325h-162z" />
<glyph unicode="&#x201c;" horiz-adv-x="940" d="M104 850v326l170 309h160l-151 -332h139v-303h-318zM518 850v326l170 309h160l-152 -332h140v-303h-318z" />
<glyph unicode="&#x201d;" horiz-adv-x="940" d="M92 829l152 349h-140v307h318v-330l-168 -326h-162zM506 829l151 349h-139v307h318v-330l-168 -326h-162z" />
<glyph unicode="&#x201e;" horiz-adv-x="944" d="M92 -348l152 348h-140v307h318v-330l-168 -325h-162zM506 -348l151 348h-139v307h318v-330l-168 -325h-162z" />
<glyph unicode="&#x2022;" horiz-adv-x="915" d="M88 571q0 150 106.5 256.5t254.5 106.5q160 0 268 -105.5t108 -257.5q0 -160 -107.5 -267t-268.5 -107q-149 0 -255 108t-106 266z" />
<glyph unicode="&#x2026;" horiz-adv-x="1536" d="M104 0v307h304v-307h-304zM616 0v307h304v-307h-304zM1128 0v307h304v-307h-304z" />
<glyph unicode="&#x202f;" horiz-adv-x="383" />
<glyph unicode="&#x2039;" horiz-adv-x="647" d="M23 559l325 469h256l-256 -469l256 -471h-256z" />
<glyph unicode="&#x203a;" horiz-adv-x="645" d="M45 88l254 471l-254 469h254l326 -469l-326 -471h-254z" />
<glyph unicode="&#x205f;" horiz-adv-x="478" />
<glyph unicode="&#x20ac;" horiz-adv-x="1540" d="M-23 500l111 168h139q-2 25 -2 80v53h-248l111 166h158q49 258 214.5 401t413.5 143q241 0 398.5 -134t189.5 -371h-250q-30 155 -117.5 223.5t-228.5 68.5q-154 0 -244.5 -88t-121.5 -243h557l-111 -166h-467v-53q0 -53 2 -80h400l-111 -168h-264q78 -314 360 -314 q301 0 355 295h252q-36 -244 -199 -376t-408 -132t-403.5 137t-212.5 390h-273z" />
<glyph unicode="&#x2122;" horiz-adv-x="1986" d="M23 1280v205h780v-205h-271v-612h-241v612h-268zM854 668v817h385l150 -524l170 524h360v-817h-238v573l-186 -573h-215l-188 569v-569h-238z" />
<glyph unicode="&#x25fc;" horiz-adv-x="1105" d="M0 0v1106h1106v-1106h-1106z" />
<glyph unicode="&#xfb01;" horiz-adv-x="1212" d="M-2 907v195h156v61q0 83 16.5 140.5t46.5 93.5t82.5 55.5t112 26t149.5 6.5h96v-209h-55q-105 0 -135.5 -22t-30.5 -99v-53h221v-195h-221v-907h-282v907h-156zM801 0v1102h282v-1102h-282zM801 1223v262h282v-262h-282z" />
<glyph unicode="&#xfb02;" horiz-adv-x="1212" d="M-2 907v195h156v61q0 83 16.5 140.5t46.5 93.5t82.5 55.5t112 26t149.5 6.5h96v-209h-55q-105 0 -135.5 -22t-30.5 -99v-53h221v-195h-221v-907h-282v907h-156zM801 0v1485h282v-1485h-282z" />
</font>
</defs>
</svg>
