<svg xmlns="http://www.w3.org/2000/svg" width="100" height="34.188" viewBox="0 0 100 34.188">
  <defs>
    <style>
      .cls-1 {
        fill: #fff;
        fill-rule: evenodd;
        opacity: 0.6;
      }
    </style>
  </defs>
  <path class="cls-1" d="M80.041,2.533A3.314,3.314,0,0,0,79.9,1.259,1.759,1.759,0,0,0,79.209.346,2.407,2.407,0,0,0,77.828,0a7.482,7.482,0,0,0-3.721.96A13.927,13.927,0,0,0,70.951,3.4a20.684,20.684,0,0,0-2.606,3.288Q67.183,8.5,66.3,10.194a15.911,15.911,0,0,0-2.166-.582A11.334,11.334,0,0,0,62,9.407a3.952,3.952,0,0,0-1.805.362,3.407,3.407,0,0,0-1.115.865,2.989,2.989,0,0,0-.565,1.038,3.335,3.335,0,0,0-.157.912,3.033,3.033,0,0,0,.11.787,2.476,2.476,0,0,0,.345.755,2.066,2.066,0,0,0,.565.567,1.408,1.408,0,0,0,.8.22,0.541,0.541,0,0,0,.581-0.3q0.109-.3.22-0.676a1.569,1.569,0,0,1,.408-0.677,1.7,1.7,0,0,1,1.178-.3,7.972,7.972,0,0,1,1.02.063,10.312,10.312,0,0,1,1.021.189q-1.225,2.234-2.245,4.342a38.58,38.58,0,0,1-2.041,3.728A12.36,12.36,0,0,1,58.2,23.9a3.606,3.606,0,0,1-2.48.991,0.689,0.689,0,0,0-.534.2,0.78,0.78,0,0,0-.188.551,0.849,0.849,0,0,0,.549.755,5.182,5.182,0,0,0,1.272.44,9.8,9.8,0,0,0,1.4.2q0.675,0.047.926,0.047a4.408,4.408,0,0,0,2.826-.975A10.942,10.942,0,0,0,64.263,23.5a33.576,33.576,0,0,0,2.1-3.791Q67.4,17.557,68.6,15.165a11.753,11.753,0,0,1,1.79,1.652,10.037,10.037,0,0,1,1.319,1.9q-0.22.913-.3,1.494a6.632,6.632,0,0,1-.11.677,2.5,2.5,0,0,0-.016.928,1.858,1.858,0,0,0,.393.881,2.373,2.373,0,0,0,.911.661,3.779,3.779,0,0,0,1.538.268,1.588,1.588,0,0,0,.612-0.11,1.24,1.24,0,0,0,.5-0.425,3.435,3.435,0,0,0,.439-0.881,14.661,14.661,0,0,0,.424-1.479q0.314-1.322.738-3.162t0.895-4.043q0.471-2.2,1-4.625T79.837,4A10.668,10.668,0,0,0,80.041,2.533Zm-5.95,5.49L73.4,11.138l-0.754,3.4a11.992,11.992,0,0,0-2.606-2.423Q70.762,10.6,71.422,9.3T72.662,7a8.2,8.2,0,0,1,1.13-1.557,1.516,1.516,0,0,1,1.02-.566Q74.436,6.387,74.091,8.023ZM106.855,21.5a4.226,4.226,0,0,0,.33-1.447,0.758,0.758,0,0,0-.11-0.661,0.274,0.274,0,0,0-.267.157,0.612,0.612,0,0,1-.549.157,1.084,1.084,0,0,1-.974-0.661,3.187,3.187,0,0,1-.164-1.239c0.049-.472.124-1.038,0.183-1.4,0.027-.164.06-0.334,0.092-0.5,0.02-.091.039-0.18,0.062-0.273l-0.013,0c0.066-.334.138-0.673,0.22-1.02q0.219-.928.455-1.872t0.455-1.715q0.22-.771.362-1.274a3.817,3.817,0,0,0,.141-0.6,0.73,0.73,0,0,0-.424-0.629,4.549,4.549,0,0,0-.989-0.425,6.292,6.292,0,0,0-1.115-.236,7.961,7.961,0,0,0-.832-0.063,1.833,1.833,0,0,0-.8.22,1.41,1.41,0,0,0-.55.661,8.791,8.791,0,0,0-.487,1.4q-0.236.866-.455,1.888T101,14.111q-0.2,1.1-.356,2.124a2.794,2.794,0,0,0-.148.315q-0.126.315-.22,0.535-0.347.755-.691,1.369a3.659,3.659,0,0,1-.785.991,2.516,2.516,0,0,1-.455.314,1.078,1.078,0,0,1-.518.126,1,1,0,0,1-1.021-.645,3.706,3.706,0,0,1-.267-1.431,9.91,9.91,0,0,1,.188-1.7q0.188-1.038.455-2.124T97.7,11.94q0.251-.959.345-1.463a7.624,7.624,0,0,0,.769-0.047,2.883,2.883,0,0,0,.879-0.236,1.816,1.816,0,0,0,.706-0.551,1.566,1.566,0,0,0,.283-0.991,2.614,2.614,0,0,0-.11-0.881,0.519,0.519,0,0,0-.345-0.346,1.706,1.706,0,0,0-.581-0.031Q99.3,7.425,98.8,7.425q0.283-1.164.55-2.25t0.455-1.919q0.188-.833.314-1.337a5.3,5.3,0,0,0,.125-0.566A0.731,0.731,0,0,0,99.823.724,4.542,4.542,0,0,0,98.834.3,6.283,6.283,0,0,0,97.719.063,8.037,8.037,0,0,0,96.887,0a1.846,1.846,0,0,0-.8.22,1.413,1.413,0,0,0-.549.661,6.153,6.153,0,0,0-.345.96q-0.189.645-.424,1.51T94.281,5.286q-0.252,1.07-.5,2.234-0.44,0-.769.016c-0.22.011-.382,0.016-0.487,0.016a0.606,0.606,0,0,0-.581.551,4.506,4.506,0,0,0-.11.928q0,0.85,1.382,1.133-0.314,1.479-.581,2.926t-0.471,2.706c-0.055.339-.1,0.659-0.151,0.968-0.054.133-.1,0.251-0.147,0.353a10.083,10.083,0,0,1-.487,1.07,6.739,6.739,0,0,1-.549.881,3.038,3.038,0,0,1-.6.613,1.009,1.009,0,0,1-.6.236,0.638,0.638,0,0,1-.675-0.362,1.875,1.875,0,0,1-.047-0.96,9.478,9.478,0,0,1,.345-1.384q0.251-.786.5-1.62t0.455-1.652a6.178,6.178,0,0,0,.2-1.479,2.033,2.033,0,0,0-.455-1.337,4.191,4.191,0,0,0-1.13-.944,7.921,7.921,0,0,0-1.476-.661q-0.8-.267-1.476-0.44t-1.13-.315a0.538,0.538,0,0,1-.455-0.3,1.867,1.867,0,0,1,.11-0.582,3.647,3.647,0,0,0,.11-1.054,2.182,2.182,0,0,0-.063-0.409A1.7,1.7,0,0,0,84.2,5.852a1.546,1.546,0,0,0-.565-0.488,2.11,2.11,0,0,0-1-.2,2.137,2.137,0,0,0-1.7.818,3.2,3.2,0,0,0-.691,2.14,2.035,2.035,0,0,0,.3,1.086,3.833,3.833,0,0,0,.769.9q-0.126,1.007-.377,2.3t-0.628,2.611q-0.157.5-.314,0.991t-0.345.928a0.812,0.812,0,0,0-.016.3,1.018,1.018,0,0,0,.126.409,1.128,1.128,0,0,0,.314.362,0.822,0.822,0,0,0,.518.157,1.214,1.214,0,0,0,.942-0.315,1.753,1.753,0,0,0,.377-0.6,29.57,29.57,0,0,0,.864-3.146q0.33-1.541.487-2.737,0.848,0.472,1.523.865a1.073,1.073,0,0,1,.675.771,6.84,6.84,0,0,1-.2,1.133q-0.2.882-.471,2.014t-0.471,2.313a12.147,12.147,0,0,0-.2,2.029,3.811,3.811,0,0,0,.157,1.007,3.081,3.081,0,0,0,.565,1.085,3.33,3.33,0,0,0,1.1.881,3.7,3.7,0,0,0,1.727.362,4.65,4.65,0,0,0,2.167-.5,6.37,6.37,0,0,0,1.758-1.353c0.162-.176.317-0.362,0.468-0.554a4.209,4.209,0,0,0,.379.727A3.749,3.749,0,0,0,93.684,23.3a4.2,4.2,0,0,0,2.166.488,4.842,4.842,0,0,0,2.2-.5,6.875,6.875,0,0,0,1.837-1.353,9.175,9.175,0,0,0,.691-0.8,4.081,4.081,0,0,0,.313.826,3.161,3.161,0,0,0,1.052,1.164,3.482,3.482,0,0,0,1.994.488,2.657,2.657,0,0,0,1.915-.661A4.1,4.1,0,0,0,106.855,21.5Zm21.571,4.115a2.429,2.429,0,0,0-1.349.429c-0.964.539-2.175,0.43-3.688,0.062a20.733,20.733,0,0,1-4.466-2.081,7.626,7.626,0,0,0-3.51-6.107c0.319-.371.637-0.742,0.96-1.109,0.712-.807,1.632-1.953,2.358-2.747a5.522,5.522,0,0,0,1.783-2.788,2.02,2.02,0,0,0-1.165-2.2,5.46,5.46,0,0,0-2.452-.1c-1.433.067-4.631-.127-6.013-0.153,0,0-2.952-.259-2.988,3.566h0v0.049h0a3.516,3.516,0,0,0,.56,1.6,0.742,0.742,0,0,0,.436.5,0.306,0.306,0,0,0,.177-0.275,1.845,1.845,0,0,1,1.944-1.633h0c1.034,0.109,2.772.068,3.566,0.092,0.068,0,.121,0,0.189,0-0.221.248-2.729,2.872-3.755,3.878a2.262,2.262,0,0,0-.138,2.883c0.528,0.724,1.74.352,2.725,1.6a2.4,2.4,0,0,1,.7,1.587s-8.772.578-9.349,7.171C104.574,34.175,109.975,34,109.975,34a9.054,9.054,0,0,0,8.67-6.79,48.021,48.021,0,0,0,4.925,2.333s2.7,1.109,4.108.524c0.43-.179,1.927-0.663,1.769-3.181C129.447,26.887,129.351,25.643,128.426,25.615ZM109.265,30.49a1.639,1.639,0,0,1-1.047-.279,1.256,1.256,0,0,1-.334-1.317s0.452-2.253,4.356-3.279c0.26-.069.94-0.3,0.913,0.353C113.112,26.969,111.109,30.243,109.265,30.49Zm45.249-14.46c-0.588-.258-1.323-0.147-1.691,1.031a8.382,8.382,0,0,1-1.857,3.22,1.216,1.216,0,0,1-.759.224,1.024,1.024,0,0,1-.973-0.661,3.364,3.364,0,0,1-.157-1.447,11.866,11.866,0,0,1,.33-1.966q0.266-1.085.5-2.2a18.467,18.467,0,0,0,.33-2.187,4.725,4.725,0,0,0-.173-1.888,2.466,2.466,0,0,0-1.036-1.322,4.051,4.051,0,0,0-2.214-.5,3.721,3.721,0,0,0-1.585.315,6.128,6.128,0,0,0-1.146.676,5.621,5.621,0,0,0-.754.676,0.808,0.808,0,0,1-.408.315,1.219,1.219,0,0,0,.031-0.9,1.264,1.264,0,0,0-.518-0.582,2.552,2.552,0,0,0-.848-0.315,5.181,5.181,0,0,0-.989-0.094,4.712,4.712,0,0,0-1.256.142,0.867,0.867,0,0,0-.628.456,15.415,15.415,0,0,0-.408,1.542q-0.252,1.1-.549,2.486t-0.6,2.91c-0.115.588-.224,1.142-0.328,1.67-0.011.026-.022,0.052-0.033,0.076q-0.345.755-.69,1.369a3.664,3.664,0,0,1-.785.991,2.318,2.318,0,0,1-.471.314,1.113,1.113,0,0,1-.5.126,1,1,0,0,1-1.036-.645,3.993,3.993,0,0,1-.251-1.463,9.064,9.064,0,0,1,.141-1.447q0.141-.849.361-1.793t0.487-1.872q0.267-.928.487-1.683t0.361-1.243a3.552,3.552,0,0,0,.141-0.582,0.73,0.73,0,0,0-.424-0.629,4.528,4.528,0,0,0-.989-0.425,6.3,6.3,0,0,0-1.114-.236,8,8,0,0,0-.833-0.063,1.951,1.951,0,0,0-.816.22,1.232,1.232,0,0,0-.534.661,2.144,2.144,0,0,1-.172.346,0.952,0.952,0,0,1-.173-0.157,3.08,3.08,0,0,0-1.146-.849,3.489,3.489,0,0,0-1.429-.315,4.594,4.594,0,0,0-1.931.456,7.213,7.213,0,0,0-1.884,1.29,10.123,10.123,0,0,0-1.648,2.029,12.814,12.814,0,0,0-1.257,2.643,12.026,12.026,0,0,0-.659,3.194,9.579,9.579,0,0,0,.22,2.848,5.9,5.9,0,0,0,1.021,2.218,3.391,3.391,0,0,0,1.742,1.243,3.78,3.78,0,0,0,2.81-.22,7.7,7.7,0,0,0,2.685-2.108,3.685,3.685,0,0,0,.455.912,3.326,3.326,0,0,0,.754.787,3.853,3.853,0,0,0,1.1.566,5.256,5.256,0,0,0,3.752-.283,6.783,6.783,0,0,0,1.588-1.118,2.222,2.222,0,0,0,.405.631,2.535,2.535,0,0,0,.864.6,3.173,3.173,0,0,0,1.287.236,1.5,1.5,0,0,0,1.366-.881,8.827,8.827,0,0,0,.8-2.187q0.314-1.305.581-2.847a20.442,20.442,0,0,1,.691-2.847,6.825,6.825,0,0,1,1.13-2.187,2.31,2.31,0,0,1,1.9-.881,0.428,0.428,0,0,1,.424.425,3.7,3.7,0,0,1-.016,1.117q-0.095.693-.3,1.557T144.87,17.25q-0.22.866-.377,1.636a6.7,6.7,0,0,0-.157,1.306,11.382,11.382,0,0,0,.078,1.164,4,4,0,0,0,.424,1.4,3.161,3.161,0,0,0,1.052,1.164,2.74,2.74,0,0,0,1.089.415,3.825,3.825,0,0,0,.554.1c4.191,0.405,6.21-3.6,6.981-5.64C155.213,16.951,155.1,16.288,154.514,16.03Zm-26.1.669a8.959,8.959,0,0,1-.644,1.416,5.412,5.412,0,0,1-.785,1.07,2.835,2.835,0,0,1-.832.629,1.033,1.033,0,0,1-.785.063,0.938,0.938,0,0,1-.6-0.488,2.586,2.586,0,0,1-.282-0.991,5.714,5.714,0,0,1,.031-1.321,7.284,7.284,0,0,1,.377-1.51,9.472,9.472,0,0,1,.644-1.432,4.847,4.847,0,0,1,.785-1.069,3.277,3.277,0,0,1,.832-0.629,1,1,0,0,1,.785-0.079,1.583,1.583,0,0,1,.863,1.494A6.722,6.722,0,0,1,128.417,16.7ZM104.522,5.71a8.057,8.057,0,0,0,.721.421,6.258,6.258,0,0,0,1.052.439,4.529,4.529,0,0,0,1.055.212,0.728,0.728,0,0,0,.705-0.277,5.25,5.25,0,0,0,.217-0.538c0.022-.059.063-0.191,0.114-0.362h0c0.093-.312.222-0.76,0.345-1.177,0.093-.3.19-0.612,0.271-0.874,0.015-.045.03-0.085,0.042-0.116h-0.006c0.076-.246.134-0.437,0.153-0.512a5.3,5.3,0,0,0,.125-0.566,0.73,0.73,0,0,0-.424-0.629A4.527,4.527,0,0,0,107.9,1.3a6.291,6.291,0,0,0-1.115-.236A8.025,8.025,0,0,0,105.956,1a1.839,1.839,0,0,0-.8.22,1.411,1.411,0,0,0-.55.661,6.108,6.108,0,0,0-.345.96q-0.1.333-.207,0.724l0.007,0a4.777,4.777,0,0,0-.152.645,1.419,1.419,0,0,0,.078.856A1.859,1.859,0,0,0,104.522,5.71Z" transform="translate(-55)"/>
</svg>
