<svg id="Group_132_copy" data-name="Group 132 copy" xmlns="http://www.w3.org/2000/svg" width="31" height="33" viewBox="0 0 31 33">
  <defs>
    <style>
      .cls-1, .cls-2, .cls-3, .cls-4, .cls-5 {
        fill-rule: evenodd;
      }

      .cls-2 {
        opacity: 0.8;
      }

      .cls-3 {
        opacity: 0.75;
      }

      .cls-4 {
        opacity: 0.4;
      }

      .cls-5 {
        opacity: 0.7;
      }
    </style>
  </defs>
  <path class="cls-1" d="M1166.07,21.348l-12.64,6.615-1.6-8.933,3.58-14.282Z" transform="translate(-1140 -1)"/>
  <path class="cls-2" d="M1168.38,15.742L1161.7,16l4.13,5,2.55-5.258" transform="translate(-1140 -1)"/>
  <path class="cls-3" d="M1141.86,1l10.54,17,3.1-13-13.64-4" transform="translate(-1140 -1)"/>
  <path class="cls-4" d="M1140,5.859l12.28,10.7-6.94-10.436L1140,5.859" transform="translate(-1140 -1)"/>
  <path class="cls-4" d="M1165.83,21l-12.4,6,12.4-3,0.29-2.712" transform="translate(-1140 -1)"/>
  <path class="cls-5" d="M1152.9,18.982L1146.34,34l7.45-4.267-0.89-10.751" transform="translate(-1140 -1)"/>
  <path class="cls-4" d="M1168.34,15.742L1165.83,19l5.17,1.748-2.66-5.006" transform="translate(-1140 -1)"/>
</svg>
